<svg xmlns="http://www.w3.org/2000/svg" width="20mm" height="20mm" viewBox="0 0 56.6929 56.6929"><defs><style>.a,.b{fill:none;stroke:#000;stroke-linejoin:round;stroke-width:0.5px;}.a{stroke-linecap:round;}</style></defs><title>15102076</title><line class="a" x1="33.1175" y1="55.802" x2="47.9494" y2="55.802"/><line class="b" x1="35.6522" y1="55.6207" x2="35.6522" y2="45.9288"/><line class="b" x1="45.5735" y1="45.9288" x2="45.5735" y2="55.6207"/><line class="a" x1="33.1175" y1="45.8808" x2="47.9494" y2="45.8808"/><line class="a" x1="33.1175" y1="37.3768" x2="47.9494" y2="37.3768"/><line class="b" x1="35.6522" y1="37.1955" x2="35.6522" y2="27.5036"/><line class="b" x1="45.5735" y1="27.5036" x2="45.5735" y2="37.1955"/><line class="a" x1="33.1175" y1="27.4556" x2="47.9494" y2="27.4556"/><line class="a" x1="33.1175" y1="19.5185" x2="47.9494" y2="19.5185"/><line class="b" x1="35.6522" y1="19.3373" x2="35.6522" y2="9.6453"/><line class="b" x1="45.5735" y1="9.6453" x2="45.5735" y2="19.3373"/><line class="a" x1="33.1175" y1="9.5973" x2="47.9494" y2="9.5973"/><line class="a" x1="5.0215" y1="47.5815" x2="19.8535" y2="47.5815"/><line class="b" x1="7.5563" y1="47.4003" x2="7.5563" y2="37.7083"/><line class="b" x1="17.4775" y1="37.7083" x2="17.4775" y2="47.4003"/><line class="a" x1="5.0215" y1="37.6603" x2="19.8535" y2="37.6603"/><line class="a" x1="5.0215" y1="29.1563" x2="19.8535" y2="29.1563"/><line class="b" x1="7.5563" y1="28.9751" x2="7.5563" y2="19.2831"/><line class="b" x1="17.4775" y1="19.2831" x2="17.4775" y2="28.9751"/><line class="a" x1="5.0215" y1="19.2351" x2="19.8535" y2="19.2351"/><line class="a" x1="5.0215" y1="11.2981" x2="19.8535" y2="11.2981"/><line class="b" x1="7.5563" y1="11.1168" x2="7.5563" y2="1.4249"/><line class="b" x1="17.4775" y1="1.4249" x2="17.4775" y2="11.1168"/><line class="a" x1="5.0215" y1="1.3768" x2="19.8535" y2="1.3768"/></svg>