<svg xmlns="http://www.w3.org/2000/svg" width="20mm" height="20mm" viewBox="0 0 56.6929 56.6929"><defs><style>.a{fill:none;stroke:#000;stroke-miterlimit:10;stroke-width:0.5px;}</style></defs><title>15102006</title><polygon class="a" points="35.408 -0.332 35.408 -11.845 45.922 -15.436 54.416 -11.515 44.955 1.357 35.408 -0.332"/><polygon class="a" points="35.408 28.014 35.408 16.501 45.922 12.911 54.416 16.831 44.955 29.703 35.408 28.014"/><polygon class="a" points="35.408 56.361 35.408 44.848 45.922 41.257 54.416 45.178 44.955 58.05 35.408 56.361"/><polygon class="a" points="-5.911 9.555 -0.168 3.543 4.726 9.555 -5.911 9.555"/><polygon class="a" points="18.541 3.543 12.798 9.555 23.435 9.555 18.541 3.543"/><polygon class="a" points="37.249 3.543 31.507 9.555 42.143 9.555 37.249 3.543"/><polygon class="a" points="56.525 3.543 50.782 9.555 61.419 9.555 56.525 3.543"/><polygon class="a" points="56.525 31.889 50.782 37.902 61.419 37.902 56.525 31.889"/><polygon class="a" points="37.249 31.889 31.507 37.902 42.143 37.902 37.249 31.889"/><polygon class="a" points="18.541 31.889 12.798 37.902 23.435 37.902 18.541 31.889"/><polygon class="a" points="-0.168 31.889 -5.911 37.902 4.726 37.902 -0.168 31.889"/><polygon class="a" points="0.653 23.68 8.046 15.54 14.287 23.68 0.653 23.68"/><polygon class="a" points="25.621 15.54 18.228 23.68 31.862 23.68 25.621 15.54"/><polygon class="a" points="25.621 43.887 18.228 52.026 31.862 52.026 25.621 43.887"/><polygon class="a" points="8.046 43.887 0.653 52.026 14.287 52.026 8.046 43.887"/></svg>