<svg xmlns="http://www.w3.org/2000/svg" width="20mm" height="20mm" viewBox="0 0 56.6929 56.6929"><defs><style>.a{fill:none;stroke:#000;stroke-linecap:round;stroke-miterlimit:10;stroke-width:0.5px;}</style></defs><title>15102014</title><circle cx="2.7815" cy="2.832" r="0.7087"/><circle cx="8.4508" cy="2.832" r="0.7087"/><circle cx="14.1201" cy="2.832" r="0.7087"/><circle cx="19.7894" cy="2.832" r="0.7087"/><circle cx="25.4587" cy="2.832" r="0.7087"/><circle cx="31.128" cy="2.832" r="0.7087"/><circle cx="36.7972" cy="2.832" r="0.7087"/><circle cx="42.4665" cy="2.832" r="0.7087"/><circle cx="48.1358" cy="2.832" r="0.7087"/><circle cx="53.8051" cy="2.832" r="0.7087"/><circle cx="2.7815" cy="8.5013" r="0.7087"/><circle cx="8.4508" cy="8.5013" r="0.7087"/><circle cx="14.1201" cy="8.5013" r="0.7087"/><circle cx="19.7894" cy="8.5013" r="0.7087"/><circle cx="25.4587" cy="8.5013" r="0.7087"/><circle cx="31.128" cy="8.5013" r="0.7087"/><circle cx="36.7972" cy="8.5013" r="0.7087"/><circle cx="42.4665" cy="8.5013" r="0.7087"/><circle cx="48.1358" cy="8.5013" r="0.7087"/><circle cx="53.8051" cy="8.5013" r="0.7087"/><circle cx="2.7815" cy="14.1706" r="0.7087"/><circle cx="8.4508" cy="14.1706" r="0.7087"/><circle cx="14.1201" cy="14.1706" r="0.7087"/><circle cx="19.7894" cy="14.1706" r="0.7087"/><circle cx="25.4587" cy="14.1706" r="0.7087"/><circle cx="31.128" cy="14.1706" r="0.7087"/><circle cx="36.7972" cy="14.1706" r="0.7087"/><circle cx="42.4665" cy="14.1706" r="0.7087"/><circle cx="48.1358" cy="14.1706" r="0.7087"/><circle cx="53.8051" cy="14.1706" r="0.7087"/><circle cx="2.7815" cy="19.8399" r="0.7087"/><circle cx="8.4508" cy="19.8399" r="0.7087"/><circle cx="14.1201" cy="19.8399" r="0.7087"/><circle cx="19.7894" cy="19.8399" r="0.7087"/><circle cx="25.4587" cy="19.8399" r="0.7087"/><circle cx="31.128" cy="19.8399" r="0.7087"/><circle cx="36.7972" cy="19.8399" r="0.7087"/><circle cx="42.4665" cy="19.8399" r="0.7087"/><circle cx="48.1358" cy="19.8399" r="0.7087"/><circle cx="53.8051" cy="19.8399" r="0.7087"/><circle cx="2.7815" cy="25.5092" r="0.7087"/><circle cx="8.4508" cy="25.5092" r="0.7087"/><circle cx="14.1201" cy="25.5092" r="0.7087"/><circle cx="19.7894" cy="25.5092" r="0.7087"/><circle cx="25.4587" cy="25.5092" r="0.7087"/><circle cx="31.128" cy="25.5092" r="0.7087"/><circle cx="36.7972" cy="25.5092" r="0.7087"/><circle cx="42.4665" cy="25.5092" r="0.7087"/><circle cx="48.1358" cy="25.5092" r="0.7087"/><circle cx="53.8051" cy="25.5092" r="0.7087"/><circle cx="2.7815" cy="31.1785" r="0.7087"/><circle cx="8.4508" cy="31.1785" r="0.7087"/><circle cx="14.1201" cy="31.1785" r="0.7087"/><circle cx="19.7894" cy="31.1785" r="0.7087"/><circle cx="25.4587" cy="31.1785" r="0.7087"/><circle cx="31.128" cy="31.1785" r="0.7087"/><circle cx="36.7972" cy="31.1785" r="0.7087"/><circle cx="42.4665" cy="31.1785" r="0.7087"/><circle cx="48.1358" cy="31.1785" r="0.7087"/><circle cx="53.8051" cy="31.1785" r="0.7087"/><circle cx="2.7815" cy="36.8478" r="0.7087"/><circle cx="8.4508" cy="36.8478" r="0.7087"/><circle cx="14.1201" cy="36.8478" r="0.7087"/><circle cx="19.7894" cy="36.8478" r="0.7087"/><circle cx="25.4587" cy="36.8478" r="0.7087"/><circle cx="31.128" cy="36.8478" r="0.7087"/><circle cx="36.7972" cy="36.8478" r="0.7087"/><circle cx="42.4665" cy="36.8478" r="0.7087"/><circle cx="48.1358" cy="36.8478" r="0.7087"/><circle cx="53.8051" cy="36.8478" r="0.7087"/><circle cx="2.7815" cy="42.5171" r="0.7087"/><circle cx="8.4508" cy="42.5171" r="0.7087"/><circle cx="14.1201" cy="42.5171" r="0.7087"/><circle cx="19.7894" cy="42.5171" r="0.7087"/><circle cx="25.4587" cy="42.5171" r="0.7087"/><circle cx="31.128" cy="42.5171" r="0.7087"/><circle cx="36.7972" cy="42.5171" r="0.7087"/><circle cx="42.4665" cy="42.5171" r="0.7087"/><circle cx="48.1358" cy="42.5171" r="0.7087"/><circle cx="53.8051" cy="42.5171" r="0.7087"/><circle cx="2.7815" cy="48.1864" r="0.7087"/><circle cx="8.4508" cy="48.1864" r="0.7087"/><circle cx="14.1201" cy="48.1864" r="0.7087"/><circle cx="19.7894" cy="48.1864" r="0.7087"/><circle cx="25.4587" cy="48.1864" r="0.7087"/><circle cx="31.128" cy="48.1864" r="0.7087"/><circle cx="36.7972" cy="48.1864" r="0.7087"/><circle cx="42.4665" cy="48.1864" r="0.7087"/><circle cx="48.1358" cy="48.1864" r="0.7087"/><circle cx="53.8051" cy="48.1864" r="0.7087"/><circle cx="2.7815" cy="53.8556" r="0.7087"/><circle cx="8.4508" cy="53.8556" r="0.7087"/><circle cx="14.1201" cy="53.8556" r="0.7087"/><circle cx="19.7894" cy="53.8556" r="0.7087"/><circle cx="25.4587" cy="53.8556" r="0.7087"/><circle cx="31.128" cy="53.8556" r="0.7087"/><circle cx="36.7972" cy="53.8556" r="0.7087"/><circle cx="42.4665" cy="53.8556" r="0.7087"/><circle cx="48.1358" cy="53.8556" r="0.7087"/><circle cx="53.8051" cy="53.8556" r="0.7087"/><line class="a" x1="11.2917" y1="11.2917" x2="25.4587" y2="11.2917"/><line class="a" x1="28.2933" y1="39.6381" x2="42.4603" y2="39.6381"/></svg>