<svg xmlns="http://www.w3.org/2000/svg" width="20mm" height="20mm" viewBox="0 0 56.6929 56.6929"><defs><style>.a{fill:none;stroke:#000;stroke-miterlimit:10;stroke-width:0.5px;}</style></defs><title>15102007</title><path class="a" d="M24.5557,13.201a6.7609,6.7609,0,0,1-4.0342-1.1841,3.2964,3.2964,0,0,1-.5825-3.8022,7.1615,7.1615,0,0,1,3.044-2.95,11.3723,11.3723,0,0,1,4.87-.35,11.0577,11.0577,0,0,1,4.2856,1.4677,3.7788,3.7788,0,0,1,1.36,2.6133c0,.8862-1.1641,2.085-2.65,2.73a23.2871,23.2871,0,0,1-5.55,1.4356A6.7182,6.7182,0,0,1,24.5557,13.201Z"/><path class="a" d="M5.73,13.201a6.7607,6.7607,0,0,1-4.0342-1.1841,3.2962,3.2962,0,0,1-.5825-3.8022,7.1613,7.1613,0,0,1,3.0439-2.95,11.3724,11.3724,0,0,1,4.87-.35,11.0583,11.0583,0,0,1,4.2857,1.4677,3.7787,3.7787,0,0,1,1.36,2.6133c0,.8862-1.164,2.085-2.65,2.73a23.2863,23.2863,0,0,1-5.55,1.4356A6.72,6.72,0,0,1,5.73,13.201Z"/><path class="a" d="M43.7707,13.2021a6.7607,6.7607,0,0,1-4.0342-1.1841,3.2962,3.2962,0,0,1-.5825-3.8022,7.1621,7.1621,0,0,1,3.0439-2.95,11.374,11.374,0,0,1,4.87-.35,11.06,11.06,0,0,1,4.2857,1.4678,3.7787,3.7787,0,0,1,1.36,2.6133c0,.8862-1.164,2.085-2.65,2.73a23.2811,23.2811,0,0,1-5.55,1.4355A6.6918,6.6918,0,0,1,43.7707,13.2021Z"/><path class="a" d="M24.5557,27.3742a6.7616,6.7616,0,0,1-4.0342-1.184,3.2966,3.2966,0,0,1-.5825-3.8023,7.1621,7.1621,0,0,1,3.044-2.95,11.3738,11.3738,0,0,1,4.87-.35,11.0576,11.0576,0,0,1,4.2856,1.4678,3.7786,3.7786,0,0,1,1.36,2.6132c0,.8863-1.1641,2.085-2.65,2.73a23.2871,23.2871,0,0,1-5.55,1.4356A6.7182,6.7182,0,0,1,24.5557,27.3742Z"/><path class="a" d="M5.73,27.3742A6.7614,6.7614,0,0,1,1.6962,26.19a3.2964,3.2964,0,0,1-.5825-3.8023,7.1619,7.1619,0,0,1,3.0439-2.95,11.374,11.374,0,0,1,4.87-.35,11.0582,11.0582,0,0,1,4.2857,1.4678,3.7784,3.7784,0,0,1,1.36,2.6132c0,.8863-1.164,2.085-2.65,2.73a23.2863,23.2863,0,0,1-5.55,1.4356A6.72,6.72,0,0,1,5.73,27.3742Z"/><path class="a" d="M43.7707,27.3753a6.7607,6.7607,0,0,1-4.0342-1.1841,3.2962,3.2962,0,0,1-.5825-3.8022,7.1613,7.1613,0,0,1,3.0439-2.95,11.374,11.374,0,0,1,4.87-.35,11.0583,11.0583,0,0,1,4.2857,1.4677,3.7789,3.7789,0,0,1,1.36,2.6133c0,.8862-1.164,2.085-2.65,2.73a23.2859,23.2859,0,0,1-5.55,1.4356A6.7164,6.7164,0,0,1,43.7707,27.3753Z"/><path class="a" d="M24.5557,41.5475a6.7616,6.7616,0,0,1-4.0342-1.1841,3.2965,3.2965,0,0,1-.5825-3.8023,7.1621,7.1621,0,0,1,3.044-2.95,11.3738,11.3738,0,0,1,4.87-.35A11.0593,11.0593,0,0,1,32.1387,34.73a3.7788,3.7788,0,0,1,1.36,2.6133c0,.8862-1.1641,2.0849-2.65,2.73a23.287,23.287,0,0,1-5.55,1.4355A6.6936,6.6936,0,0,1,24.5557,41.5475Z"/><path class="a" d="M5.73,41.5475a6.7614,6.7614,0,0,1-4.0342-1.1841,3.2964,3.2964,0,0,1-.5825-3.8023,7.1619,7.1619,0,0,1,3.0439-2.95,11.374,11.374,0,0,1,4.87-.35A11.06,11.06,0,0,1,13.3134,34.73a3.7787,3.7787,0,0,1,1.36,2.6133c0,.8862-1.164,2.0849-2.65,2.73a23.2862,23.2862,0,0,1-5.55,1.4355A6.6949,6.6949,0,0,1,5.73,41.5475Z"/><path class="a" d="M43.7707,41.5485a6.7614,6.7614,0,0,1-4.0342-1.184,3.2964,3.2964,0,0,1-.5825-3.8023,7.1619,7.1619,0,0,1,3.0439-2.95,11.374,11.374,0,0,1,4.87-.35,11.0582,11.0582,0,0,1,4.2857,1.4678,3.7784,3.7784,0,0,1,1.36,2.6132c0,.8863-1.164,2.085-2.65,2.73a23.2811,23.2811,0,0,1-5.55,1.4356A6.7164,6.7164,0,0,1,43.7707,41.5485Z"/><path class="a" d="M24.5557,55.7207a6.7609,6.7609,0,0,1-4.0342-1.1841,3.2964,3.2964,0,0,1-.5825-3.8022,7.1615,7.1615,0,0,1,3.044-2.95,11.3721,11.3721,0,0,1,4.87-.35,11.0593,11.0593,0,0,1,4.2856,1.4678,3.7788,3.7788,0,0,1,1.36,2.6133c0,.8862-1.1641,2.085-2.65,2.73a23.2823,23.2823,0,0,1-5.55,1.4355A6.6936,6.6936,0,0,1,24.5557,55.7207Z"/><path class="a" d="M5.73,55.7207a6.7607,6.7607,0,0,1-4.0342-1.1841,3.2962,3.2962,0,0,1-.5825-3.8022,7.1613,7.1613,0,0,1,3.0439-2.95,11.3723,11.3723,0,0,1,4.87-.35,11.06,11.06,0,0,1,4.2857,1.4678,3.7787,3.7787,0,0,1,1.36,2.6133c0,.8862-1.164,2.085-2.65,2.73a23.2815,23.2815,0,0,1-5.55,1.4355A6.6949,6.6949,0,0,1,5.73,55.7207Z"/><path class="a" d="M43.7707,55.7218a6.7614,6.7614,0,0,1-4.0342-1.1841,3.2964,3.2964,0,0,1-.5825-3.8023,7.1619,7.1619,0,0,1,3.0439-2.95,11.374,11.374,0,0,1,4.87-.35,11.06,11.06,0,0,1,4.2857,1.4678,3.7787,3.7787,0,0,1,1.36,2.6133c0,.8862-1.164,2.0849-2.65,2.7295a23.2858,23.2858,0,0,1-5.55,1.4355A6.6918,6.6918,0,0,1,43.7707,55.7218Z"/></svg>