<svg xmlns="http://www.w3.org/2000/svg" width="20mm" height="20mm" viewBox="0 0 56.6929 56.6929"><defs><style>.a{fill:none;stroke:#000;stroke-miterlimit:10;stroke-width:0.5px;}</style></defs><title>15102075</title><line class="a" x1="34.7002" y1="55.6524" x2="49.5321" y2="55.6524"/><line class="a" x1="37.2349" y1="55.4711" x2="37.2349" y2="45.7792"/><line class="a" x1="47.1562" y1="45.7792" x2="47.1562" y2="55.4711"/><line class="a" x1="34.7002" y1="45.7311" x2="49.5321" y2="45.7311"/><line class="a" x1="6.6042" y1="29.0067" x2="21.4361" y2="29.0067"/><line class="a" x1="9.1389" y1="28.8255" x2="9.1389" y2="19.1335"/><line class="a" x1="19.0602" y1="19.1335" x2="19.0602" y2="28.8255"/><line class="a" x1="6.6042" y1="19.0855" x2="21.4361" y2="19.0855"/><line class="a" x1="6.6042" y1="11.1485" x2="21.4361" y2="11.1485"/><line class="a" x1="9.1389" y1="10.9672" x2="9.1389" y2="1.2753"/><line class="a" x1="19.0602" y1="1.2753" x2="19.0602" y2="10.9672"/><line class="a" x1="6.6042" y1="1.2272" x2="21.4361" y2="1.2272"/><line class="a" x1="46.0052" y1="21.6739" x2="46.0052" y2="6.842"/><line class="a" x1="45.8239" y1="19.1392" x2="38.1162" y2="19.1392"/><line class="a" x1="38.1162" y1="9.2179" x2="45.8239" y2="9.2179"/><line class="a" x1="38.0682" y1="21.6739" x2="38.0682" y2="6.842"/><line class="a" x1="46.2886" y1="40.699" x2="46.2886" y2="25.8671"/><line class="a" x1="46.1073" y1="38.1643" x2="38.3997" y2="38.1643"/><line class="a" x1="38.3997" y1="28.243" x2="46.1073" y2="28.243"/><line class="a" x1="38.3516" y1="40.699" x2="38.3516" y2="25.8671"/><line class="a" x1="17.9422" y1="48.9195" x2="17.9422" y2="34.0876"/><line class="a" x1="17.7609" y1="46.3848" x2="10.0532" y2="46.3848"/><line class="a" x1="10.0532" y1="36.4635" x2="17.7609" y2="36.4635"/><line class="a" x1="10.0052" y1="48.9195" x2="10.0052" y2="34.0876"/></svg>