<svg xmlns="http://www.w3.org/2000/svg" width="20mm" height="20mm" viewBox="0 0 56.6929 56.6929"><defs><style>.a{fill:none;stroke:#000;stroke-miterlimit:10;stroke-width:0.5px;}</style></defs><title>15104041</title><line class="a" x1="0.3779" y1="8.4668" x2="14.0445" y2="8.4668"/><line class="a" x1="19.2755" y1="8.4668" x2="32.9422" y2="8.4668"/><line class="a" x1="38.1731" y1="8.4668" x2="51.8398" y2="8.4668"/><line class="a" x1="-6.7087" y1="22.8101" x2="6.9579" y2="22.8101"/><line class="a" x1="12.1889" y1="22.8101" x2="25.8556" y2="22.8101"/><line class="a" x1="31.0865" y1="22.8101" x2="44.7532" y2="22.8101"/><line class="a" x1="49.9842" y1="22.8101" x2="63.6508" y2="22.8101"/><line class="a" x1="0.3779" y1="36.87" x2="14.0445" y2="36.87"/><line class="a" x1="19.2755" y1="36.87" x2="32.9422" y2="36.87"/><line class="a" x1="38.1731" y1="36.87" x2="51.8398" y2="36.87"/><line class="a" x1="-6.7087" y1="50.9298" x2="6.9579" y2="50.9298"/><line class="a" x1="12.1889" y1="50.9298" x2="25.8556" y2="50.9298"/><line class="a" x1="31.0865" y1="50.9298" x2="44.7532" y2="50.9298"/><line class="a" x1="49.9842" y1="50.9298" x2="63.6508" y2="50.9298"/><line class="a" x1="26.1088" y1="10.7724" x2="26.1088" y2="6.1613"/><line class="a" x1="45.3844" y1="10.7724" x2="45.3844" y2="6.1613"/><line class="a" x1="7.1167" y1="10.7724" x2="7.1167" y2="6.1613"/><line class="a" x1="26.1088" y1="39.1755" x2="26.1088" y2="34.5644"/><line class="a" x1="45.3844" y1="39.1755" x2="45.3844" y2="34.5644"/><line class="a" x1="7.1167" y1="39.1755" x2="7.1167" y2="34.5644"/><line class="a" x1="19.3057" y1="25.1157" x2="19.3057" y2="20.5046"/><line class="a" x1="38.5813" y1="25.1157" x2="38.5813" y2="20.5046"/><line class="a" x1="0.3136" y1="25.1157" x2="0.3136" y2="20.5046"/><line class="a" x1="19.3057" y1="53.2354" x2="19.3057" y2="48.6243"/><line class="a" x1="38.5813" y1="53.2354" x2="38.5813" y2="48.6243"/><line class="a" x1="0.3136" y1="53.2354" x2="0.3136" y2="48.6243"/></svg>