<svg xmlns="http://www.w3.org/2000/svg" width="20mm" height="20mm" viewBox="0 0 56.6929 56.6929"><defs><style>.a,.b{fill:none;}.a{stroke:#000;stroke-miterlimit:10;stroke-width:0.3873px;}</style></defs><title>15104055</title><line class="a" y1="33.7605" x2="56.6929" y2="33.7605"/><line class="a" y1="28.0678" x2="56.6929" y2="28.0678"/><line class="a" x1="0.1094" y1="22.3751" x2="56.6929" y2="22.3751"/><line class="a" x1="5.9528" y1="28.0678" x2="5.9528" y2="22.3751"/><line class="a" x1="5.9528" y1="39.4532" x2="5.9528" y2="33.7605"/><line class="a" x1="5.9528" y1="50.8387" x2="5.9528" y2="45.146"/><line class="a" x1="20.4094" y1="33.7605" x2="20.4094" y2="28.0678"/><line class="a" x1="48.7559" y1="33.7605" x2="48.7559" y2="28.0678"/><line class="a" x1="20.4094" y1="45.0644" x2="20.4094" y2="39.4532"/><line class="a" x1="48.7559" y1="45.0644" x2="48.7559" y2="39.4532"/><line class="a" x1="34.2992" y1="28.0678" x2="34.2992" y2="22.3751"/><line class="a" y1="16.7292" x2="56.6929" y2="16.7292"/><line class="a" x1="5.9528" y1="16.7292" x2="5.9528" y2="11.0365"/><line class="a" x1="20.4094" y1="22.4219" x2="20.4094" y2="16.7292"/><line class="a" x1="48.7559" y1="22.4219" x2="48.7559" y2="16.7292"/><line class="a" x1="34.2992" y1="16.7292" x2="34.2992" y2="11.0365"/><rect class="b" x="-0.1673" y="-0.3021" width="56.6929" height="45.3543"/><line class="a" x1="0.1094" y1="11.0365" x2="56.6929" y2="11.0365"/><line class="a" y1="5.3906" x2="56.6929" y2="5.3906"/><line class="a" x1="5.9528" y1="5.3906" x2="5.9528" y2="-0.3021"/><line class="a" x1="20.4094" y1="11.0834" x2="20.4094" y2="5.3906"/><line class="a" x1="48.7559" y1="11.0834" x2="48.7559" y2="5.3906"/><line class="a" x1="34.2992" y1="5.3906" x2="34.2992" y2="-0.3021"/><line class="a" x1="34.2992" y1="39.4532" x2="34.2992" y2="33.7605"/><line class="a" x1="34.2992" y1="50.8387" x2="34.2992" y2="45.146"/><line class="a" y1="39.4532" x2="56.6929" y2="39.4532"/><line class="a" y1="45.146" x2="56.6929" y2="45.146"/><line class="a" x1="20.4094" y1="56.5314" x2="20.4094" y2="50.8387"/><line class="a" x1="48.7559" y1="56.5314" x2="48.7559" y2="50.8387"/><line class="a" y1="56.5314" x2="56.6929" y2="56.5314"/><line class="a" y1="50.8387" x2="56.6929" y2="50.8387"/></svg>