<svg xmlns="http://www.w3.org/2000/svg" width="20mm" height="20mm" viewBox="0 0 56.6929 56.6929"><defs><style>.a{fill:none;stroke:#000;stroke-miterlimit:10;stroke-width:0.5px;}</style></defs><title>15102071</title><path class="a" d="M30.9077,17.3189,38.706,9.1523l8.05,8.1666-1.4512-.94a11.9052,11.9052,0,0,0-12.9459,0Z"/><path class="a" d="M30.9077,35.525l7.7983-8.1667,8.05,8.1667-1.4512-.94a11.9056,11.9056,0,0,0-12.9459,0Z"/><path class="a" d="M2.5613,26.9567,10.36,18.79l8.05,8.1666-1.4511-.94a11.9057,11.9057,0,0,0-12.946,0Z"/><path class="a" d="M2.5613,8.9293,10.36.7626l8.05,8.1667-1.4511-.94a11.9057,11.9057,0,0,0-12.946,0Z"/><path class="a" d="M2.5613,45.1628,10.36,36.9961l8.05,8.1667-1.4511-.94a11.9057,11.9057,0,0,0-12.946,0Z"/><path class="a" d="M30.9077,53.6667,38.706,45.5l8.05,8.1666-1.4512-.94a11.9052,11.9052,0,0,0-12.9459,0Z"/></svg>