<svg xmlns="http://www.w3.org/2000/svg" width="20mm" height="20mm" viewBox="0 0 56.6929 56.6929"><defs><style>.a{fill:none;stroke:#000;stroke-miterlimit:10;stroke-width:0.3873px;}</style></defs><title>15104216</title><line class="a" x1="0.063" y1="33.792" x2="56.7559" y2="33.792"/><line class="a" x1="0.063" y1="28.0993" x2="56.7559" y2="28.0993"/><line class="a" x1="6.0157" y1="28.0993" x2="11.4016" y2="22.4066"/><line class="a" x1="6.0157" y1="39.4847" x2="11.4016" y2="33.792"/><line class="a" x1="20.4724" y1="33.792" x2="25.8583" y2="28.0993"/><line class="a" x1="48.8189" y1="33.792" x2="54.2047" y2="28.0993"/><line class="a" x1="20.4724" y1="45.0959" x2="25.8583" y2="39.4847"/><line class="a" x1="48.8189" y1="45.0959" x2="54.2047" y2="39.4847"/><line class="a" x1="34.3622" y1="28.0993" x2="39.748" y2="22.4066"/><line class="a" x1="0.063" y1="22.4534" x2="56.7559" y2="22.4534"/><line class="a" x1="0.063" y1="16.7607" x2="56.7559" y2="16.7607"/><line class="a" x1="6.0157" y1="16.7607" x2="11.4016" y2="11.068"/><line class="a" x1="20.4724" y1="22.4534" x2="25.8583" y2="16.7607"/><line class="a" x1="48.8189" y1="22.4534" x2="54.2047" y2="16.7607"/><line class="a" x1="34.3622" y1="16.7607" x2="39.748" y2="11.068"/><line class="a" x1="0.063" y1="11.1149" x2="56.7559" y2="11.1149"/><line class="a" x1="0.063" y1="5.4221" x2="56.7559" y2="5.4221"/><line class="a" x1="6.0157" y1="5.4221" x2="11.4016" y2="-0.2706"/><line class="a" x1="20.4724" y1="11.1149" x2="25.8583" y2="5.4221"/><line class="a" x1="48.8189" y1="11.1149" x2="54.2047" y2="5.4221"/><line class="a" x1="34.3622" y1="5.4221" x2="39.748" y2="-0.2706"/><line class="a" x1="34.3622" y1="39.4847" x2="39.748" y2="33.792"/><line class="a" x1="34.3622" y1="50.8702" x2="39.748" y2="45.1775"/><line class="a" x1="0.063" y1="39.4847" x2="56.7559" y2="39.4847"/><line class="a" x1="0.063" y1="45.1775" x2="56.7559" y2="45.1775"/><line class="a" x1="20.4724" y1="56.5629" x2="25.8583" y2="50.8702"/><line class="a" x1="0.063" y1="56.5629" x2="56.7559" y2="56.5629"/><line class="a" x1="0.063" y1="50.8702" x2="56.7559" y2="50.8702"/><line class="a" x1="6.0157" y1="50.8702" x2="11.4016" y2="45.1775"/><line class="a" x1="48.8189" y1="56.5629" x2="54.2047" y2="50.8702"/></svg>