<svg xmlns="http://www.w3.org/2000/svg" width="20mm" height="20mm" viewBox="0 0 56.6929 56.6929"><defs><style>.a{fill:none;stroke:#000;stroke-linecap:round;stroke-miterlimit:10;stroke-width:0.5px;}</style></defs><title>15102025</title><circle cx="2.8711" cy="10.5645" r="0.7087"/><line class="a" x1="-6.8269" y1="11.2731" x2="6.8398" y2="11.2731"/><circle cx="16.1549" cy="10.5645" r="0.7087"/><circle cx="21.8632" cy="10.5645" r="0.7087"/><line class="a" x1="12.0708" y1="11.2731" x2="25.7375" y2="11.2731"/><circle cx="34.8635" cy="10.5645" r="0.7087"/><circle cx="40.5719" cy="10.5645" r="0.7087"/><line class="a" x1="30.9684" y1="11.2731" x2="44.6351" y2="11.2731"/><circle cx="53.8556" cy="10.5645" r="0.7087"/><line class="a" x1="49.8661" y1="11.2731" x2="63.5327" y2="11.2731"/><circle cx="4.2493" cy="4.8952" r="0.7087"/><circle cx="9.9577" cy="4.8952" r="0.7087"/><line class="a" x1="0.2598" y1="5.6038" x2="13.9264" y2="5.6038"/><circle cx="23.2415" cy="4.8952" r="0.7087"/><circle cx="28.9498" cy="4.8952" r="0.7087"/><line class="a" x1="19.1574" y1="5.6038" x2="32.8241" y2="5.6038"/><circle cx="41.9501" cy="4.8952" r="0.7087"/><circle cx="47.6585" cy="4.8952" r="0.7087"/><line class="a" x1="38.055" y1="5.6038" x2="51.7217" y2="5.6038"/><line class="a" x1="-6.8269" y1="-0.0655" x2="6.8398" y2="-0.0655"/><line class="a" x1="12.0708" y1="-0.0655" x2="25.7375" y2="-0.0655"/><line class="a" x1="30.9684" y1="-0.0655" x2="44.6351" y2="-0.0655"/><line class="a" x1="49.8661" y1="-0.0655" x2="63.5327" y2="-0.0655"/><circle cx="2.8711" cy="21.9031" r="0.7087"/><line class="a" x1="-6.8269" y1="22.6117" x2="6.8398" y2="22.6117"/><circle cx="16.1549" cy="21.9031" r="0.7087"/><circle cx="21.8632" cy="21.9031" r="0.7087"/><line class="a" x1="12.0708" y1="22.6117" x2="25.7375" y2="22.6117"/><circle cx="34.8635" cy="21.9031" r="0.7087"/><circle cx="40.5719" cy="21.9031" r="0.7087"/><line class="a" x1="30.9684" y1="22.6117" x2="44.6351" y2="22.6117"/><circle cx="53.8556" cy="21.9031" r="0.7087"/><line class="a" x1="49.8661" y1="22.6117" x2="63.5327" y2="22.6117"/><circle cx="4.2493" cy="16.2338" r="0.7087"/><circle cx="9.9577" cy="16.2338" r="0.7087"/><line class="a" x1="0.2598" y1="16.9424" x2="13.9264" y2="16.9424"/><circle cx="23.2415" cy="16.2338" r="0.7087"/><circle cx="28.9498" cy="16.2338" r="0.7087"/><line class="a" x1="19.1574" y1="16.9424" x2="32.8241" y2="16.9424"/><circle cx="41.9501" cy="16.2338" r="0.7087"/><circle cx="47.6585" cy="16.2338" r="0.7087"/><line class="a" x1="38.055" y1="16.9424" x2="51.7217" y2="16.9424"/><circle cx="2.8711" cy="33.2416" r="0.7087"/><line class="a" x1="-6.8269" y1="33.9503" x2="6.8398" y2="33.9503"/><circle cx="16.1549" cy="33.2416" r="0.7087"/><circle cx="21.8632" cy="33.2416" r="0.7087"/><line class="a" x1="12.0708" y1="33.9503" x2="25.7375" y2="33.9503"/><circle cx="34.8635" cy="33.2416" r="0.7087"/><circle cx="40.5719" cy="33.2416" r="0.7087"/><line class="a" x1="30.9684" y1="33.9503" x2="44.6351" y2="33.9503"/><circle cx="53.8556" cy="33.2416" r="0.7087"/><line class="a" x1="49.8661" y1="33.9503" x2="63.5327" y2="33.9503"/><circle cx="4.2493" cy="27.5723" r="0.7087"/><circle cx="9.9577" cy="27.5723" r="0.7087"/><line class="a" x1="0.2598" y1="28.281" x2="13.9264" y2="28.281"/><circle cx="23.2415" cy="27.5723" r="0.7087"/><circle cx="28.9498" cy="27.5723" r="0.7087"/><line class="a" x1="19.1574" y1="28.281" x2="32.8241" y2="28.281"/><circle cx="41.9501" cy="27.5723" r="0.7087"/><circle cx="47.6585" cy="27.5723" r="0.7087"/><line class="a" x1="38.055" y1="28.281" x2="51.7217" y2="28.281"/><circle cx="2.8711" cy="44.5802" r="0.7087"/><line class="a" x1="-6.8269" y1="45.2889" x2="6.8398" y2="45.2889"/><circle cx="16.1549" cy="44.5802" r="0.7087"/><circle cx="21.8632" cy="44.5802" r="0.7087"/><line class="a" x1="12.0708" y1="45.2889" x2="25.7375" y2="45.2889"/><circle cx="34.8635" cy="44.5802" r="0.7087"/><circle cx="40.5719" cy="44.5802" r="0.7087"/><line class="a" x1="30.9684" y1="45.2889" x2="44.6351" y2="45.2889"/><circle cx="53.8556" cy="44.5802" r="0.7087"/><line class="a" x1="49.8661" y1="45.2889" x2="63.5327" y2="45.2889"/><circle cx="4.2493" cy="38.9109" r="0.7087"/><circle cx="9.9577" cy="38.9109" r="0.7087"/><line class="a" x1="0.2598" y1="39.6196" x2="13.9264" y2="39.6196"/><circle cx="23.2415" cy="38.9109" r="0.7087"/><circle cx="28.9498" cy="38.9109" r="0.7087"/><line class="a" x1="19.1574" y1="39.6196" x2="32.8241" y2="39.6196"/><circle cx="41.9501" cy="38.9109" r="0.7087"/><circle cx="47.6585" cy="38.9109" r="0.7087"/><line class="a" x1="38.055" y1="39.6196" x2="51.7217" y2="39.6196"/><circle cx="2.8711" cy="55.9188" r="0.7087"/><line class="a" x1="-6.8269" y1="56.6275" x2="6.8398" y2="56.6275"/><circle cx="16.1549" cy="55.9188" r="0.7087"/><circle cx="21.8632" cy="55.9188" r="0.7087"/><line class="a" x1="12.0708" y1="56.6275" x2="25.7375" y2="56.6275"/><circle cx="34.8635" cy="55.9188" r="0.7087"/><circle cx="40.5719" cy="55.9188" r="0.7087"/><line class="a" x1="30.9684" y1="56.6275" x2="44.6351" y2="56.6275"/><circle cx="53.8556" cy="55.9188" r="0.7087"/><line class="a" x1="49.8661" y1="56.6275" x2="63.5327" y2="56.6275"/><circle cx="4.2493" cy="50.2495" r="0.7087"/><circle cx="9.9577" cy="50.2495" r="0.7087"/><line class="a" x1="0.2598" y1="50.9582" x2="13.9264" y2="50.9582"/><circle cx="23.2415" cy="50.2495" r="0.7087"/><circle cx="28.9498" cy="50.2495" r="0.7087"/><line class="a" x1="19.1574" y1="50.9582" x2="32.8241" y2="50.9582"/><circle cx="41.9501" cy="50.2495" r="0.7087"/><circle cx="47.6585" cy="50.2495" r="0.7087"/><line class="a" x1="38.055" y1="50.9582" x2="51.7217" y2="50.9582"/></svg>