<svg xmlns="http://www.w3.org/2000/svg" width="20mm" height="20mm" viewBox="0 0 56.6929 56.6929"><defs><style>.a{fill:none;stroke:#000;stroke-miterlimit:10;stroke-width:0.5px;}</style></defs><title>15102051</title><line class="a" x1="0.1496" y1="19.0599" x2="56.8425" y2="19.0599"/><line class="a" x1="0.1496" y1="9.572" x2="56.8425" y2="9.572"/><line class="a" x1="0.259" y1="0.0842" x2="56.8425" y2="0.0842"/><line class="a" x1="6.1024" y1="9.572" x2="6.1024" y2="0.0841"/><line class="a" x1="6.1024" y1="28.5477" x2="6.1024" y2="19.0599"/><line class="a" x1="6.1024" y1="47.5235" x2="6.1024" y2="38.0357"/><line class="a" x1="20.5591" y1="19.0599" x2="20.5591" y2="9.572"/><line class="a" x1="48.9055" y1="19.0599" x2="48.9055" y2="9.572"/><line class="a" x1="20.5591" y1="37.8996" x2="20.5591" y2="28.5477"/><line class="a" x1="48.9055" y1="37.8996" x2="48.9055" y2="28.5477"/><line class="a" x1="34.4488" y1="9.572" x2="34.4488" y2="0.0841"/><line class="a" x1="34.4488" y1="28.5477" x2="34.4488" y2="19.0599"/><line class="a" x1="34.4488" y1="47.5234" x2="34.4488" y2="38.0356"/><line class="a" x1="0.1496" y1="28.5477" x2="56.8425" y2="28.5477"/><line class="a" x1="0.1496" y1="38.0356" x2="56.8425" y2="38.0356"/><line class="a" x1="20.5591" y1="57.0113" x2="20.5591" y2="47.5234"/><line class="a" x1="48.9055" y1="57.0113" x2="48.9055" y2="47.5234"/><line class="a" x1="0.1496" y1="47.5235" x2="56.8425" y2="47.5235"/><ellipse class="a" cx="33.9999" cy="33.2237" rx="4.7622" ry="1.8142"/><ellipse class="a" cx="33.9999" cy="52.2158" rx="4.7622" ry="1.8142"/><ellipse class="a" cx="33.9999" cy="14.2315" rx="4.7622" ry="1.8142"/><ellipse class="a" cx="5.9369" cy="33.2237" rx="4.7622" ry="1.8142"/><ellipse class="a" cx="5.9369" cy="52.2158" rx="4.7622" ry="1.8142"/><ellipse class="a" cx="5.9369" cy="14.2315" rx="4.7622" ry="1.8142"/><ellipse class="a" cx="20.677" cy="23.5859" rx="4.7622" ry="1.8142"/><ellipse class="a" cx="20.677" cy="42.578" rx="4.7622" ry="1.8142"/><ellipse class="a" cx="20.677" cy="4.5937" rx="4.7622" ry="1.8142"/><ellipse class="a" cx="49.0235" cy="23.5859" rx="4.7622" ry="1.8142"/><ellipse class="a" cx="49.0235" cy="42.578" rx="4.7622" ry="1.8142"/><ellipse class="a" cx="49.0235" cy="4.5937" rx="4.7622" ry="1.8142"/></svg>