<svg xmlns="http://www.w3.org/2000/svg" width="20mm" height="20mm" viewBox="0 0 56.6929 56.6929"><defs><style>.a{fill:none;stroke:#000;stroke-miterlimit:10;stroke-width:0.5px;}</style></defs><title>15102038</title><circle cx="20.8445" cy="24.2021" r="0.7087"/><circle cx="20.8445" cy="4.9265" r="0.7087"/><circle cx="49.1909" cy="4.9265" r="0.7087"/><circle cx="34.7343" cy="14.2808" r="0.7087"/><circle cx="6.3878" cy="14.2808" r="0.7087"/><circle cx="6.3878" cy="33.5564" r="0.7087"/><circle cx="34.7343" cy="33.5564" r="0.7087"/><circle cx="49.1909" cy="24.2021" r="0.7087"/><circle cx="49.1909" cy="42.9108" r="0.7087"/><circle cx="20.8445" cy="42.9108" r="0.7087"/><circle cx="6.3878" cy="52.5486" r="0.7087"/><circle cx="34.7343" cy="52.5486" r="0.7087"/><line class="a" x1="0.3465" y1="18.9575" x2="56.6929" y2="18.9575"/><line class="a" x1="0.0965" y1="9.4696" x2="56.7894" y2="9.4696"/><line class="a" x1="0.3465" y1="-0.0182" x2="56.6929" y2="-0.0182"/><line class="a" x1="6.2992" y1="9.4696" x2="6.2992" y2="-0.0182"/><line class="a" x1="6.2992" y1="28.4454" x2="6.2992" y2="18.9575"/><line class="a" x1="6.2992" y1="47.4211" x2="6.2992" y2="37.9333"/><line class="a" x1="20.7559" y1="18.9575" x2="20.7559" y2="9.4696"/><line class="a" x1="49.1024" y1="18.9575" x2="49.1024" y2="9.4696"/><line class="a" x1="20.7559" y1="37.7972" x2="20.7559" y2="28.4454"/><line class="a" x1="49.1024" y1="37.7972" x2="49.1024" y2="28.4454"/><line class="a" x1="34.6457" y1="9.4696" x2="34.6457" y2="-0.0182"/><line class="a" x1="34.6457" y1="28.4454" x2="34.6457" y2="18.9575"/><line class="a" x1="34.6457" y1="47.4211" x2="34.6457" y2="37.9333"/><line class="a" x1="0.3465" y1="28.4454" x2="56.6929" y2="28.4454"/><line class="a" x1="0.3465" y1="37.9332" x2="56.6929" y2="37.9332"/><line class="a" x1="20.7559" y1="56.909" x2="20.7559" y2="47.4211"/><line class="a" x1="49.1024" y1="56.909" x2="49.1024" y2="47.4211"/><line class="a" x1="0.3465" y1="56.909" x2="56.6929" y2="56.909"/><line class="a" x1="0.3465" y1="47.4211" x2="56.6929" y2="47.4211"/></svg>