<svg xmlns="http://www.w3.org/2000/svg" width="20mm" height="20.259mm" viewBox="0 0 56.6929 57.4272"><defs><style>.a{fill:none;stroke:#000;stroke-miterlimit:10;stroke-width:0.5px;}</style></defs><title>15102107</title><line class="a" y1="19.2257" x2="56.6929" y2="19.2257"/><line class="a" y1="9.7378" x2="56.6929" y2="9.7378"/><line class="a" x1="0.1094" y1="0.25" x2="56.6929" y2="0.25"/><line class="a" x1="5.9528" y1="9.7379" x2="5.9528" y2="0.25"/><line class="a" x1="5.9528" y1="28.7136" x2="5.9528" y2="19.2257"/><line class="a" x1="5.9528" y1="47.6893" x2="5.9528" y2="38.2015"/><line class="a" x1="20.4094" y1="19.2257" x2="20.4094" y2="9.7379"/><line class="a" x1="48.7559" y1="19.2257" x2="48.7559" y2="9.7379"/><line class="a" x1="20.4094" y1="38.0654" x2="20.4094" y2="28.7136"/><line class="a" x1="48.7559" y1="38.0654" x2="48.7559" y2="28.7136"/><line class="a" x1="34.2992" y1="9.7378" x2="34.2992" y2="0.25"/><line class="a" x1="34.2992" y1="28.7136" x2="34.2992" y2="19.2257"/><line class="a" x1="34.2992" y1="47.6893" x2="34.2992" y2="38.2015"/><line class="a" y1="28.7136" x2="56.6929" y2="28.7136"/><line class="a" y1="38.2014" x2="56.6929" y2="38.2014"/><line class="a" x1="20.4094" y1="57.1772" x2="20.4094" y2="47.6893"/><line class="a" x1="48.7559" y1="57.1772" x2="48.7559" y2="47.6893"/><line class="a" y1="57.1772" x2="56.6929" y2="57.1772"/><line class="a" y1="47.6893" x2="56.6929" y2="47.6893"/><line class="a" x1="27.0928" y1="14.4818" x2="41.2598" y2="14.4818"/><line class="a" x1="0.2835" y1="33.3895" x2="14.4505" y2="33.3895"/></svg>