<svg xmlns="http://www.w3.org/2000/svg" width="20mm" height="20mm" viewBox="0 0 56.6929 56.6929"><defs><style>.a,.b{fill:none;stroke:#000;stroke-miterlimit:10;stroke-width:0.5px;}.a{stroke-linecap:round;}</style></defs><title>15101001</title><circle cx="8.5409" cy="15.5391" r="0.7087"/><circle cx="29.0551" cy="43.2257" r="0.7087"/><circle cx="1.6418" cy="30.1767" r="0.7087"/><circle cx="48.1358" cy="46.125" r="0.7087"/><line class="a" x1="12.7059" y1="12.0003" x2="26.8729" y2="12.0003"/><line class="a" x1="29.7638" y1="22.5" x2="43.9308" y2="22.5"/><line class="a" x1="-3.5933" y1="46.125" x2="10.5737" y2="46.125"/><line class="b" x1="47.8337" y1="8.6666" x2="61.5003" y2="8.6666"/><circle cx="51.9177" cy="7.9299" r="0.7087"/><line class="b" x1="-8.8593" y1="8.6666" x2="4.8074" y2="8.6666"/><circle cx="0.9332" cy="7.9299" r="0.7087"/><line class="b" x1="8.5409" y1="35.3617" x2="22.2076" y2="35.3617"/><circle cx="12.625" cy="34.625" r="0.7087"/><circle cx="18.3333" cy="34.625" r="0.7087"/><line class="b" x1="24.8326" y1="52.7702" x2="38.4993" y2="52.7702"/><circle cx="28.9167" cy="52.0335" r="0.7087"/><circle cx="34.625" cy="52.0335" r="0.7087"/><path class="b" d="M46.6712,38.8221A6.7607,6.7607,0,0,1,42.637,37.638a3.2964,3.2964,0,0,1-.5825-3.8022,7.1618,7.1618,0,0,1,3.0439-2.95,11.3745,11.3745,0,0,1,4.87-.35,11.0577,11.0577,0,0,1,4.2856,1.4677,3.779,3.779,0,0,1,1.36,2.6133c0,.8863-1.1641,2.085-2.65,2.73a23.2883,23.2883,0,0,1-5.55,1.4356A6.72,6.72,0,0,1,46.6712,38.8221Z"/><path class="b" d="M15.3718,25.932a6.7609,6.7609,0,0,1-4.0342-1.1841,3.2964,3.2964,0,0,1-.5825-3.8022,4.7293,4.7293,0,0,1,3.1455-2.3207,4.4952,4.4952,0,0,1,4.74,2.6c.7633,2.14.1171,3.0123-1.0312,3.9313A3.7819,3.7819,0,0,1,15.3718,25.932Z"/><path class="b" d="M3.7926,59.5931c-1.1483-.919-1.7945-1.7916-1.0313-3.9313a4.4954,4.4954,0,0,1,4.74-2.6,4.7293,4.7293,0,0,1,3.1455,2.3207,3.2962,3.2962,0,0,1-.5826,3.8022A6.76,6.76,0,0,1,6.03,60.3688,3.7818,3.7818,0,0,1,3.7926,59.5931Z"/><path class="b" d="M3.7926,2.9C2.6443,1.9812,1.9981,1.1086,2.7613-1.0311a4.4952,4.4952,0,0,1,4.74-2.6A4.7293,4.7293,0,0,1,10.6468-1.31a3.2962,3.2962,0,0,1-.5826,3.8022A6.76,6.76,0,0,1,6.03,3.6759,3.7814,3.7814,0,0,1,3.7926,2.9Z"/><path class="b" d="M23.9167,5.3542a2.8644,2.8644,0,0,1,1.9841-3.2636A2.1293,2.1293,0,0,1,28.25,3.9167a2.4827,2.4827,0,0,1-.8276,2.7708C26.5171,7.412,24.2054,6.3808,23.9167,5.3542Z"/><path class="b" d="M41.7051,17.7288a2.8644,2.8644,0,0,1-3.2636-1.9841,2.1293,2.1293,0,0,1,1.8261-2.3492,2.4828,2.4828,0,0,1,2.7708.8275C43.7629,15.1284,42.7317,17.44,41.7051,17.7288Z"/><path class="b" d="M34.5568,27.9915a2.4829,2.4829,0,0,1,.8276,2.7708,2.1293,2.1293,0,0,1-2.3493,1.8261,2.8644,2.8644,0,0,1-1.9841-3.2636C31.34,28.2982,33.6514,27.267,34.5568,27.9915Z"/></svg>