<svg xmlns="http://www.w3.org/2000/svg" width="20mm" height="20mm" viewBox="0 0 56.6929 56.6929"><defs><style>.a{fill:none;stroke:#000;stroke-miterlimit:10;stroke-width:0.5px;}</style></defs><title>15102005</title><path class="a" d="M25.34,11.2832a6.76,6.76,0,0,1-4.0341-1.1841,3.2962,3.2962,0,0,1-.5826-3.8022,7.1615,7.1615,0,0,1,3.044-2.95,11.3723,11.3723,0,0,1,4.87-.35,11.0589,11.0589,0,0,1,4.2857,1.4677,3.779,3.779,0,0,1,1.36,2.6133c0,.8862-1.1641,2.085-2.65,2.73a23.2823,23.2823,0,0,1-5.55,1.4355A6.6923,6.6923,0,0,1,25.34,11.2832Z"/><path class="a" d="M6.5145,11.2832A6.7607,6.7607,0,0,1,2.48,10.0991a3.2964,3.2964,0,0,1-.5825-3.8022,7.1618,7.1618,0,0,1,3.0439-2.95,11.3729,11.3729,0,0,1,4.87-.35,11.0577,11.0577,0,0,1,4.2856,1.4677,3.7788,3.7788,0,0,1,1.36,2.6133c0,.8862-1.1641,2.085-2.65,2.73a23.2835,23.2835,0,0,1-5.55,1.4355A6.6949,6.6949,0,0,1,6.5145,11.2832Z"/><path class="a" d="M44.5548,11.2843A6.7614,6.7614,0,0,1,40.5206,10.1a3.2964,3.2964,0,0,1-.5825-3.8023,7.163,7.163,0,0,1,3.0439-2.95,11.3743,11.3743,0,0,1,4.87-.35,11.06,11.06,0,0,1,4.2856,1.4678,3.7788,3.7788,0,0,1,1.36,2.6133c0,.8862-1.1641,2.0849-2.65,2.73a23.2883,23.2883,0,0,1-5.55,1.4355A6.6949,6.6949,0,0,1,44.5548,11.2843Z"/><path class="a" d="M25.34,25.4564a6.76,6.76,0,0,1-4.0341-1.1841,3.2962,3.2962,0,0,1-.5826-3.8022,7.1615,7.1615,0,0,1,3.044-2.95,11.3738,11.3738,0,0,1,4.87-.35,11.0571,11.0571,0,0,1,4.2857,1.4678,3.7788,3.7788,0,0,1,1.36,2.6132c0,.8863-1.1641,2.085-2.65,2.73a23.2871,23.2871,0,0,1-5.55,1.4356A6.7169,6.7169,0,0,1,25.34,25.4564Z"/><path class="a" d="M44.5548,25.4575a6.7607,6.7607,0,0,1-4.0342-1.1841,3.2962,3.2962,0,0,1-.5825-3.8022,7.1618,7.1618,0,0,1,3.0439-2.95,11.3727,11.3727,0,0,1,4.87-.35A11.0583,11.0583,0,0,1,52.1378,18.64a3.7788,3.7788,0,0,1,1.36,2.6133c0,.8862-1.1641,2.085-2.65,2.7295a23.2835,23.2835,0,0,1-5.55,1.4355A6.6949,6.6949,0,0,1,44.5548,25.4575Z"/><path class="a" d="M44.5548,39.6307a6.7607,6.7607,0,0,1-4.0342-1.1841,3.2962,3.2962,0,0,1-.5825-3.8022,7.1624,7.1624,0,0,1,3.0439-2.95,11.3743,11.3743,0,0,1,4.87-.35,11.0566,11.0566,0,0,1,4.2856,1.4678,3.7786,3.7786,0,0,1,1.36,2.6132c0,.8863-1.1641,2.085-2.65,2.73a23.2883,23.2883,0,0,1-5.55,1.4356A6.72,6.72,0,0,1,44.5548,39.6307Z"/><polygon class="a" points="16.908 51.561 16.908 40.048 27.422 36.458 35.916 40.378 26.455 53.25 16.908 51.561"/><polygon class="a" points="7.469 16.516 1.726 22.529 12.363 22.529 7.469 16.516"/><polygon class="a" points="7.469 34.737 1.726 40.75 12.363 40.75 7.469 34.737"/><polygon class="a" points="9.065 45.864 3.322 51.877 13.959 51.877 9.065 45.864"/><polygon class="a" points="16.034 24.277 8.641 32.416 22.275 32.416 16.034 24.277"/><polygon class="a" points="45.494 43.737 38.101 51.877 51.735 51.877 45.494 43.737"/></svg>