<svg xmlns="http://www.w3.org/2000/svg" width="20mm" height="20mm" viewBox="0 0 56.6929 56.6929"><title>15102009</title><circle cx="2.9154" cy="2.832" r="0.7087"/><circle cx="8.5846" cy="2.832" r="0.7087"/><circle cx="14.2539" cy="2.832" r="0.7087"/><circle cx="19.9232" cy="2.832" r="0.7087"/><circle cx="25.5925" cy="2.832" r="0.7087"/><circle cx="31.2618" cy="2.832" r="0.7087"/><circle cx="36.9311" cy="2.832" r="0.7087"/><circle cx="42.6004" cy="2.832" r="0.7087"/><circle cx="48.2697" cy="2.832" r="0.7087"/><circle cx="53.939" cy="2.832" r="0.7087"/><circle cx="2.9154" cy="8.5013" r="0.7087"/><circle cx="8.5846" cy="8.5013" r="0.7087"/><circle cx="14.2539" cy="8.5013" r="0.7087"/><circle cx="19.9232" cy="8.5013" r="0.7087"/><circle cx="25.5925" cy="8.5013" r="0.7087"/><circle cx="31.2618" cy="8.5013" r="0.7087"/><circle cx="36.9311" cy="8.5013" r="0.7087"/><circle cx="42.6004" cy="8.5013" r="0.7087"/><circle cx="48.2697" cy="8.5013" r="0.7087"/><circle cx="53.939" cy="8.5013" r="0.7087"/><circle cx="2.9154" cy="14.1706" r="0.7087"/><circle cx="8.5846" cy="14.1706" r="0.7087"/><circle cx="14.2539" cy="14.1706" r="0.7087"/><circle cx="19.9232" cy="14.1706" r="0.7087"/><circle cx="25.5925" cy="14.1706" r="0.7087"/><circle cx="31.2618" cy="14.1706" r="0.7087"/><circle cx="36.9311" cy="14.1706" r="0.7087"/><circle cx="42.6004" cy="14.1706" r="0.7087"/><circle cx="48.2697" cy="14.1706" r="0.7087"/><circle cx="53.939" cy="14.1706" r="0.7087"/><circle cx="2.9154" cy="19.8399" r="0.7087"/><circle cx="8.5846" cy="19.8399" r="0.7087"/><circle cx="14.2539" cy="19.8399" r="0.7087"/><circle cx="19.9232" cy="19.8399" r="0.7087"/><circle cx="25.5925" cy="19.8399" r="0.7087"/><circle cx="31.2618" cy="19.8399" r="0.7087"/><circle cx="36.9311" cy="19.8399" r="0.7087"/><circle cx="42.6004" cy="19.8399" r="0.7087"/><circle cx="48.2697" cy="19.8399" r="0.7087"/><circle cx="53.939" cy="19.8399" r="0.7087"/><circle cx="2.9154" cy="25.5092" r="0.7087"/><circle cx="8.5846" cy="25.5092" r="0.7087"/><circle cx="14.2539" cy="25.5092" r="0.7087"/><circle cx="19.9232" cy="25.5092" r="0.7087"/><circle cx="25.5925" cy="25.5092" r="0.7087"/><circle cx="31.2618" cy="25.5092" r="0.7087"/><circle cx="36.9311" cy="25.5092" r="0.7087"/><circle cx="42.6004" cy="25.5092" r="0.7087"/><circle cx="48.2697" cy="25.5092" r="0.7087"/><circle cx="53.939" cy="25.5092" r="0.7087"/><circle cx="2.9154" cy="31.1785" r="0.7087"/><circle cx="8.5846" cy="31.1785" r="0.7087"/><circle cx="14.2539" cy="31.1785" r="0.7087"/><circle cx="19.9232" cy="31.1785" r="0.7087"/><circle cx="25.5925" cy="31.1785" r="0.7087"/><circle cx="31.2618" cy="31.1785" r="0.7087"/><circle cx="36.9311" cy="31.1785" r="0.7087"/><circle cx="42.6004" cy="31.1785" r="0.7087"/><circle cx="48.2697" cy="31.1785" r="0.7087"/><circle cx="53.939" cy="31.1785" r="0.7087"/><circle cx="2.9154" cy="36.8478" r="0.7087"/><circle cx="8.5846" cy="36.8478" r="0.7087"/><circle cx="14.2539" cy="36.8478" r="0.7087"/><circle cx="19.9232" cy="36.8478" r="0.7087"/><circle cx="25.5925" cy="36.8478" r="0.7087"/><circle cx="31.2618" cy="36.8478" r="0.7087"/><circle cx="36.9311" cy="36.8478" r="0.7087"/><circle cx="42.6004" cy="36.8478" r="0.7087"/><circle cx="48.2697" cy="36.8478" r="0.7087"/><circle cx="53.939" cy="36.8478" r="0.7087"/><circle cx="2.9154" cy="42.5171" r="0.7087"/><circle cx="8.5846" cy="42.5171" r="0.7087"/><circle cx="14.2539" cy="42.5171" r="0.7087"/><circle cx="19.9232" cy="42.5171" r="0.7087"/><circle cx="25.5925" cy="42.5171" r="0.7087"/><circle cx="31.2618" cy="42.5171" r="0.7087"/><circle cx="36.9311" cy="42.5171" r="0.7087"/><circle cx="42.6004" cy="42.5171" r="0.7087"/><circle cx="48.2697" cy="42.5171" r="0.7087"/><circle cx="53.939" cy="42.5171" r="0.7087"/><circle cx="2.9154" cy="48.1864" r="0.7087"/><circle cx="8.5846" cy="48.1864" r="0.7087"/><circle cx="14.2539" cy="48.1864" r="0.7087"/><circle cx="19.9232" cy="48.1864" r="0.7087"/><circle cx="25.5925" cy="48.1864" r="0.7087"/><circle cx="31.2618" cy="48.1864" r="0.7087"/><circle cx="36.9311" cy="48.1864" r="0.7087"/><circle cx="42.6004" cy="48.1864" r="0.7087"/><circle cx="48.2697" cy="48.1864" r="0.7087"/><circle cx="53.939" cy="48.1864" r="0.7087"/><circle cx="2.9154" cy="53.8556" r="0.7087"/><circle cx="8.5846" cy="53.8556" r="0.7087"/><circle cx="14.2539" cy="53.8556" r="0.7087"/><circle cx="19.9232" cy="53.8556" r="0.7087"/><circle cx="25.5925" cy="53.8556" r="0.7087"/><circle cx="31.2618" cy="53.8556" r="0.7087"/><circle cx="36.9311" cy="53.8556" r="0.7087"/><circle cx="42.6004" cy="53.8556" r="0.7087"/><circle cx="48.2697" cy="53.8556" r="0.7087"/><circle cx="53.939" cy="53.8556" r="0.7087"/></svg>