<svg xmlns="http://www.w3.org/2000/svg" width="20mm" height="20mm" viewBox="0 0 56.6929 56.6929"><defs><style>.a{fill:none;stroke:#000;stroke-miterlimit:10;stroke-width:0.5px;}</style></defs><title>15104005</title><line class="a" x1="56.8634" y1="34.0712" x2="22.5087" y2="-0.2835"/><line class="a" x1="16.8395" y1="-0.2835" x2="56.8634" y2="39.7404"/><line class="a" x1="56.8634" y1="28.4019" x2="28.178" y2="-0.2835"/><line class="a" x1="11.1701" y1="-0.2835" x2="56.8634" y2="45.4097"/><path class="a" d="M56.8634,51.079,5.4433-.341m.51,57.2023L-.113,50.5121m57.0894,6.3492L-.226-.341M11.622,56.8613-.226,45.0133m17.5173,11.848L-.1972,39.3153m23.1578,17.546L-.226,33.6748M28.63,56.8613-.226,28.0055M34.2992,56.8613-.226,22.3362M39.9685,56.8613-.226,16.6669M45.6953,56.9188-.226,11.281M51.3647,56.9188-.2835,5.3858"/><line class="a" x1="56.8634" y1="17.3468" x2="39.5166" y2="-0.2835"/><line class="a" x1="33.8473" y1="-0.2835" x2="56.8634" y2="22.7326"/><line class="a" x1="56.8634" y1="11.394" x2="45.1859" y2="-0.2835"/><line class="a" x1="56.8634" y1="5.7247" x2="50.8552" y2="-0.2835"/><line class="a" x1="33.8473" y1="56.8613" x2="56.9199" y2="33.7888"/><line class="a" x1="39.5166" y1="56.8613" x2="56.9199" y2="39.4581"/><line class="a" x1="45.1859" y1="56.8613" x2="56.9199" y2="45.1274"/><line class="a" x1="50.8552" y1="56.8613" x2="56.9199" y2="50.7967"/><line class="a" x1="56.9199" y1="22.4502" x2="22.3937" y2="56.9763"/><line class="a" x1="28.178" y1="56.8613" x2="56.9199" y2="28.1195"/><line class="a" x1="5.3858" y1="56.9188" x2="56.9199" y2="5.4365"/><line class="a" x1="11.1126" y1="56.9188" x2="56.9199" y2="11.1116"/><line class="a" x1="16.7819" y1="56.9188" x2="56.9199" y2="16.7809"/><line class="a" x1="-0.2835" y1="5.9527" x2="5.8958" y2="-0.2835"/><line class="a" x1="-0.2835" y1="11.622" x2="11.622" y2="-0.2835"/><line class="a" x1="-0.226" y1="17.2338" x2="17.2913" y2="-0.2835"/><line class="a" x1="-0.2835" y1="22.9606" x2="22.9606" y2="-0.2835"/><line class="a" x1="-0.226" y1="28.5724" x2="28.6299" y2="-0.2835"/><line class="a" x1="-0.2835" y1="34.2992" x2="34.0157"/><line class="a" x1="-0.1972" y1="39.8822" x2="39.9685" y2="-0.2835"/><line class="a" x1="-0.2835" y1="45.6378" x2="45.6378" y2="-0.2835"/><line class="a" x1="-0.2834" y1="56.9763" x2="56.9199" y2="-0.227"/><line class="a" x1="51.3071" y1="-0.2835" x2="-0.0565" y2="51.0801"/></svg>