<svg xmlns="http://www.w3.org/2000/svg" width="20mm" height="20mm" viewBox="0 0 56.6929 56.6929"><defs><style>.a{fill:none;stroke:#000;stroke-miterlimit:10;stroke-width:0.5px;}</style></defs><title>15102049</title><line class="a" x1="0.063" y1="18.9418" x2="56.7559" y2="18.9418"/><line class="a" x1="0.063" y1="9.4539" x2="56.7559" y2="9.4539"/><line class="a" x1="0.1724" y1="-0.034" x2="56.7559" y2="-0.034"/><line class="a" x1="6.0157" y1="9.4539" x2="11.4016" y2="-0.034"/><line class="a" x1="6.0157" y1="28.4296" x2="11.4016" y2="18.9418"/><line class="a" x1="20.4724" y1="18.9418" x2="25.8583" y2="9.4539"/><line class="a" x1="48.8189" y1="18.9418" x2="54.2047" y2="9.4539"/><line class="a" x1="20.4724" y1="37.7815" x2="25.8583" y2="28.4296"/><line class="a" x1="48.8189" y1="37.7815" x2="54.2047" y2="28.4296"/><line class="a" x1="34.3622" y1="9.4539" x2="39.748" y2="-0.034"/><line class="a" x1="34.3622" y1="28.4296" x2="39.748" y2="18.9418"/><line class="a" x1="34.3622" y1="47.4053" x2="39.748" y2="37.9175"/><line class="a" x1="0.063" y1="28.4296" x2="56.7559" y2="28.4296"/><line class="a" x1="0.063" y1="37.9175" x2="56.7559" y2="37.9175"/><line class="a" x1="20.4724" y1="56.8932" x2="25.8583" y2="47.4053"/><line class="a" x1="0.063" y1="56.8932" x2="56.7559" y2="56.8932"/><line class="a" x1="0.063" y1="47.4053" x2="56.7559" y2="47.4053"/><line class="a" x1="6.0157" y1="47.4053" x2="11.4016" y2="37.9175"/><line class="a" x1="48.8189" y1="56.8932" x2="54.2047" y2="47.4053"/></svg>