<svg xmlns="http://www.w3.org/2000/svg" width="20mm" height="20mm" viewBox="0 0 56.6929 56.6929"><defs><style>.a{fill:none;stroke:#000;stroke-linecap:round;stroke-miterlimit:10;stroke-width:0.3873px;}</style></defs><title>15104032</title><line class="a" x1="-0.0479" y1="5.6149" x2="56.935" y2="5.6149"/><line class="a" x1="-0.0479" y1="11.2842" x2="56.935" y2="11.2842"/><line class="a" x1="-0.0479" y1="16.9534" x2="56.935" y2="16.9534"/><line class="a" x1="-0.0479" y1="22.6227" x2="56.935" y2="22.6227"/><line class="a" x1="-0.0479" y1="28.292" x2="56.935" y2="28.292"/><line class="a" x1="-0.0479" y1="33.9613" x2="56.935" y2="33.9613"/><line class="a" x1="-0.0479" y1="39.6306" x2="56.935" y2="39.6306"/><line class="a" x1="-0.0479" y1="45.2999" x2="56.935" y2="45.2999"/><line class="a" x1="-0.0479" y1="50.9692" x2="56.935" y2="50.9692"/><line class="a" x1="-0.0479" y1="56.6385" x2="56.935" y2="56.6385"/><line class="a" x1="-0.0479" y1="2.7802" x2="56.935" y2="2.7802"/><line class="a" x1="-0.0479" y1="8.4495" x2="56.935" y2="8.4495"/><line class="a" x1="-0.0479" y1="14.1188" x2="56.935" y2="14.1188"/><line class="a" x1="-0.0479" y1="19.7881" x2="56.935" y2="19.7881"/><line class="a" x1="-0.0479" y1="25.4574" x2="56.935" y2="25.4574"/><line class="a" x1="-0.0479" y1="31.1267" x2="56.935" y2="31.1267"/><line class="a" x1="-0.0479" y1="36.796" x2="56.935" y2="36.796"/><line class="a" x1="-0.0479" y1="42.4653" x2="56.935" y2="42.4653"/><line class="a" x1="-0.0479" y1="48.1345" x2="56.935" y2="48.1345"/><line class="a" x1="-0.0479" y1="53.8038" x2="56.935" y2="53.8038"/></svg>