<svg xmlns="http://www.w3.org/2000/svg" width="20mm" height="20mm" viewBox="0 0 56.6929 56.6929"><defs><style>.a{fill:none;stroke:#000;stroke-miterlimit:10;stroke-width:0.5px;}</style></defs><title>15102024</title><line class="a" x1="6.4026" y1="14.0842" x2="28.6526" y2="14.0842"/><line class="a" x1="34.9026" y1="14.0842" x2="56.6942" y2="14.0842"/><line class="a" x1="21.5945" y1="4.7298" x2="43.8445" y2="4.7298"/><line class="a" x1="-6.4888" y1="42.7141" x2="15.3445" y2="42.7141"/><line class="a" x1="21.5945" y1="42.7141" x2="43.8445" y2="42.7141"/><line class="a" x1="3.4961" y1="17.5308" x2="3.4961" y2="10.3642"/><line class="a" x1="18.5197" y1="8.3717" x2="18.5197" y2="1.2051"/><line class="a" x1="46.8661" y1="8.3717" x2="46.8661" y2="1.2051"/><line class="a" x1="18.5197" y1="46.4442" x2="18.5197" y2="39.2776"/><line class="a" x1="46.8661" y1="46.4442" x2="46.8661" y2="39.2776"/><line class="a" x1="49.9409" y1="42.7141" x2="72.1909" y2="42.7141"/><line class="a" x1="31.8425" y1="17.5308" x2="31.8425" y2="10.3642"/><line class="a" x1="0.3385" y1="7.1865" x2="14.0052" y2="7.1865"/><line class="a" x1="12.1495" y1="35.2495" x2="25.8162" y2="35.2495"/><line class="a" x1="31.0472" y1="35.2495" x2="44.7138" y2="35.2495"/><line class="a" x1="0.3385" y1="29.8637" x2="14.0052" y2="29.8637"/><line class="a" x1="32.7861" y1="26.1786" x2="46.4528" y2="26.1786"/><line class="a" x1="38.1338" y1="29.8637" x2="51.8004" y2="29.8637"/><line class="a" x1="12.1495" y1="56.7928" x2="25.8162" y2="56.7928"/><line class="a" x1="31.0472" y1="56.7928" x2="44.7138" y2="56.7928"/><line class="a" x1="19.2361" y1="51.1235" x2="32.9028" y2="51.1235"/><line class="a" x1="38.1338" y1="51.1235" x2="51.8004" y2="51.1235"/><circle cx="4.3281" cy="6.4498" r="0.7087"/><circle cx="10.0364" cy="6.4498" r="0.7087"/><circle cx="16.2336" cy="34.5128" r="0.7087"/><circle cx="21.9419" cy="34.5128" r="0.7087"/><circle cx="34.9423" cy="34.5128" r="0.7087"/><circle cx="40.6506" cy="34.5128" r="0.7087"/><circle cx="4.3281" cy="29.127" r="0.7087"/><circle cx="10.0364" cy="29.127" r="0.7087"/><circle cx="36.8702" cy="25.4419" r="0.7087"/><circle cx="42.5785" cy="25.4419" r="0.7087"/><circle cx="42.0289" cy="29.127" r="0.7087"/><circle cx="47.7372" cy="29.127" r="0.7087"/><circle cx="16.2336" cy="56.0561" r="0.7087"/><circle cx="21.9419" cy="56.0561" r="0.7087"/><circle cx="34.9423" cy="56.0561" r="0.7087"/><circle cx="40.6506" cy="56.0561" r="0.7087"/><circle cx="23.3202" cy="50.3868" r="0.7087"/><circle cx="29.0285" cy="50.3868" r="0.7087"/><circle cx="42.0289" cy="50.3868" r="0.7087"/><circle cx="47.7372" cy="50.3868" r="0.7087"/><line class="a" x1="-6.63" y1="2.9345" x2="7.0367" y2="2.9345"/><line class="a" x1="50.0629" y1="2.9345" x2="63.7296" y2="2.9345"/><line class="a" x1="-6.63" y1="25.6117" x2="7.0367" y2="25.6117"/><line class="a" x1="12.2676" y1="25.6117" x2="25.9343" y2="25.6117"/><line class="a" x1="18.2204" y1="29.2968" x2="31.8871" y2="29.2968"/><line class="a" x1="50.0629" y1="25.6117" x2="63.7296" y2="25.6117"/><line class="a" x1="0.4566" y1="19.9424" x2="14.1233" y2="19.9424"/><line class="a" x1="19.3542" y1="19.9424" x2="33.0209" y2="19.9424"/><line class="a" x1="38.2519" y1="19.9424" x2="51.9186" y2="19.9424"/><line class="a" x1="-6.63" y1="36.9503" x2="7.0367" y2="36.9503"/><line class="a" x1="50.0629" y1="36.9503" x2="63.7296" y2="36.9503"/><line class="a" x1="1.6778" y1="48.75" x2="15.3445" y2="48.75"/><line class="a" x1="0.4566" y1="53.9582" x2="14.1233" y2="53.9582"/></svg>