<svg xmlns="http://www.w3.org/2000/svg" width="20mm" height="20mm" viewBox="0 0 56.6929 56.6929"><defs><style>.a{fill:none;stroke:#000;stroke-linecap:round;stroke-miterlimit:10;stroke-width:0.3873px;}</style></defs><title>15104031</title><line class="a" x1="8.875" y1="33.9046" x2="31.125" y2="33.9046"/><line class="a" x1="37.375" y1="33.9046" x2="59.1667" y2="33.9046"/><line class="a" x1="8.875" y1="45.2999" x2="31.125" y2="45.2999"/><line class="a" x1="37.375" y1="45.2999" x2="59.1667" y2="45.2999"/><line class="a" x1="8.875" y1="56.6952" x2="31.125" y2="56.6952"/><line class="a" x1="-19.7549" y1="33.9046" x2="2.4951" y2="33.9046"/><line class="a" x1="-19.7549" y1="45.2999" x2="2.4951" y2="45.2999"/><line class="a" x1="-19.7549" y1="56.6952" x2="2.4951" y2="56.6952"/><line class="a" x1="37.375" y1="56.6952" x2="59.1667" y2="56.6952"/><line class="a" x1="-4.5833" y1="39.6873" x2="17.25" y2="39.6873"/><line class="a" x1="23.5" y1="39.6873" x2="45.75" y2="39.6873"/><line class="a" x1="-4.5833" y1="28.292" x2="17.25" y2="28.292"/><line class="a" x1="-4.5833" y1="51.0826" x2="17.25" y2="51.0826"/><line class="a" x1="54.0938" y1="39.6873" x2="75.9272" y2="39.6873"/><line class="a" x1="54.0938" y1="28.292" x2="75.9272" y2="28.292"/><line class="a" x1="8.875" y1="22.566" x2="31.125" y2="22.566"/><line class="a" x1="37.375" y1="22.566" x2="59.1667" y2="22.566"/><line class="a" x1="-19.7549" y1="22.566" x2="2.4951" y2="22.566"/><line class="a" x1="23.5" y1="28.3487" x2="45.75" y2="28.3487"/><line class="a" x1="-4.5833" y1="16.9534" x2="17.25" y2="16.9534"/><line class="a" x1="23.5" y1="16.9534" x2="45.75" y2="16.9534"/><line class="a" x1="54.0938" y1="16.9534" x2="75.9272" y2="16.9534"/><line class="a" x1="8.875" y1="11.2275" x2="31.125" y2="11.2275"/><line class="a" x1="37.375" y1="11.2275" x2="59.1667" y2="11.2275"/><line class="a" x1="-19.7549" y1="11.2275" x2="2.4951" y2="11.2275"/><line class="a" x1="-4.5833" y1="5.6149" x2="17.25" y2="5.6149"/><line class="a" x1="23.5" y1="5.6149" x2="45.75" y2="5.6149"/><line class="a" x1="54.0938" y1="5.6149" x2="75.9272" y2="5.6149"/><line class="a" x1="54.0938" y1="51.0826" x2="75.9272" y2="51.0826"/><line class="a" x1="23.5" y1="51.0826" x2="45.75" y2="51.0826"/></svg>