<svg xmlns="http://www.w3.org/2000/svg" width="20mm" height="20mm" viewBox="0 0 56.6929 56.6929"><defs><style>.a{fill:none;stroke:#000;stroke-miterlimit:10;stroke-width:0.5px;}</style></defs><title>15104014</title><line class="a" x1="56.8634" y1="34.0712" x2="22.5087" y2="-0.2835"/><line class="a" x1="11.1701" y1="-0.2835" x2="56.8634" y2="45.4097"/><path class="a" d="M56.9764,56.8613-.226-.341M11.622,56.8613-.226,45.0133m23.1866,11.848L-.226,33.6748M34.2992,56.8613-.226,22.3362M45.6953,56.9188-.226,11.281"/><line class="a" x1="33.8473" y1="-0.2835" x2="56.8634" y2="22.7326"/><line class="a" x1="56.8634" y1="11.394" x2="45.1859" y2="-0.2835"/><line class="a" x1="33.8473" y1="56.8613" x2="56.9199" y2="33.7888"/><line class="a" x1="45.1859" y1="56.8613" x2="56.9199" y2="45.1274"/><line class="a" x1="56.9199" y1="22.4502" x2="22.3937" y2="56.9763"/><line class="a" x1="11.1126" y1="56.9188" x2="56.9199" y2="11.1116"/><line class="a" x1="-0.2835" y1="11.622" x2="11.622" y2="-0.2835"/><line class="a" x1="-0.2835" y1="22.9606" x2="22.9606" y2="-0.2835"/><line class="a" x1="-0.2835" y1="34.2992" x2="34.0157"/><line class="a" x1="-0.2835" y1="45.6378" x2="45.6378" y2="-0.2835"/><line class="a" x1="-0.2834" y1="56.9763" x2="56.9199" y2="-0.227"/></svg>