<svg xmlns="http://www.w3.org/2000/svg" width="20mm" height="20mm" viewBox="0 0 56.6929 56.6929"><defs><style>.a{fill:none;stroke:#000;stroke-miterlimit:10;stroke-width:0.5px;}</style></defs><title>15102077</title><line class="a" x1="53.5091" y1="21.8235" x2="53.5091" y2="6.9916"/><line class="a" x1="53.3278" y1="19.2888" x2="45.6201" y2="19.2888"/><line class="a" x1="45.6201" y1="9.3675" x2="53.3278" y2="9.3675"/><line class="a" x1="45.5721" y1="21.8235" x2="45.5721" y2="6.9916"/><line class="a" x1="35.0839" y1="21.8235" x2="35.0839" y2="6.9916"/><line class="a" x1="34.9026" y1="19.2888" x2="27.1949" y2="19.2888"/><line class="a" x1="27.1949" y1="9.3675" x2="34.9026" y2="9.3675"/><line class="a" x1="27.1469" y1="21.8235" x2="27.1469" y2="6.9916"/><line class="a" x1="17.2256" y1="21.8235" x2="17.2256" y2="6.9916"/><line class="a" x1="17.0444" y1="19.2888" x2="9.3367" y2="19.2888"/><line class="a" x1="9.3367" y1="9.3675" x2="17.0444" y2="9.3675"/><line class="a" x1="9.2886" y1="21.8235" x2="9.2886" y2="6.9916"/><line class="a" x1="47.2729" y1="49.9195" x2="47.2729" y2="35.0876"/><line class="a" x1="47.0916" y1="47.3848" x2="39.3839" y2="47.3848"/><line class="a" x1="39.3839" y1="37.4635" x2="47.0916" y2="37.4635"/><line class="a" x1="39.3359" y1="49.9195" x2="39.3359" y2="35.0876"/><line class="a" x1="28.8477" y1="49.9195" x2="28.8477" y2="35.0876"/><line class="a" x1="28.6664" y1="47.3848" x2="20.9587" y2="47.3848"/><line class="a" x1="20.9587" y1="37.4635" x2="28.6664" y2="37.4635"/><line class="a" x1="20.9107" y1="49.9195" x2="20.9107" y2="35.0876"/><line class="a" x1="10.9894" y1="49.9195" x2="10.9894" y2="35.0876"/><line class="a" x1="10.8081" y1="47.3848" x2="3.1005" y2="47.3848"/><line class="a" x1="3.1005" y1="37.4635" x2="10.8081" y2="37.4635"/><line class="a" x1="3.0524" y1="49.9195" x2="3.0524" y2="35.0876"/></svg>