<svg xmlns="http://www.w3.org/2000/svg" width="20mm" height="20mm" viewBox="0 0 56.6929 56.6929"><defs><style>.a{fill:none;stroke:#000;stroke-linejoin:round;stroke-width:0.5px;}</style></defs><title>15102070</title><path class="a" d="M36.0962.5973,43.8945,8.764l8.05-8.1667-1.4512.94a11.9056,11.9056,0,0,1-12.9459,0Z"/><path class="a" d="M7.6557,29.8475l7.7983,8.1667,8.05-8.1667-1.4511.94a11.9057,11.9057,0,0,1-12.946,0Z"/><path class="a" d="M35.9077,44.1628l7.7983-8.1667,8.05,8.1667-1.4512-.94a11.9056,11.9056,0,0,0-12.9459,0Z"/><path class="a" d="M7.5613,17.5671,15.36,9.4l8.05,8.1667-1.4511-.94a11.9057,11.9057,0,0,0-12.946,0Z"/><rect class="a" x="10.5248" y="45.117" width="9.9213" height="9.9213"/><rect class="a" x="38.5878" y="17.054" width="9.9213" height="9.9213"/></svg>