<svg xmlns="http://www.w3.org/2000/svg" width="20mm" height="20mm" viewBox="0 0 56.6929 56.6929"><defs><style>.a{fill:none;stroke:#000;stroke-linecap:round;stroke-miterlimit:10;stroke-width:0.5px;}</style></defs><title>15102027</title><line class="a" x1="8.875" y1="9.47" x2="31.125" y2="9.47"/><line class="a" x1="37.375" y1="9.47" x2="59.1667" y2="9.47"/><line class="a" x1="8.875" y1="28.4621" x2="31.125" y2="28.4621"/><line class="a" x1="37.375" y1="28.4621" x2="59.1667" y2="28.4621"/><line class="a" x1="8.875" y1="47.4542" x2="31.125" y2="47.4542"/><line class="a" x1="-19.7549" y1="9.47" x2="2.4951" y2="9.47"/><line class="a" x1="-19.7549" y1="28.4621" x2="2.4951" y2="28.4621"/><line class="a" x1="-19.7549" y1="47.4542" x2="2.4951" y2="47.4542"/><line class="a" x1="37.375" y1="47.4542" x2="59.1667" y2="47.4542"/><line class="a" x1="-4.5833" y1="19.1078" x2="17.25" y2="19.1078"/><line class="a" x1="23.5" y1="19.1078" x2="45.75" y2="19.1078"/><line class="a" x1="-4.5833" y1="0.1156" x2="17.25" y2="0.1156"/><line class="a" x1="23.5" y1="0.1156" x2="45.75" y2="0.1156"/><line class="a" x1="-4.5833" y1="38.0999" x2="17.25" y2="38.0999"/><line class="a" x1="54.0938" y1="19.1078" x2="75.9272" y2="19.1078"/><line class="a" x1="54.0938" y1="0.1156" x2="75.9272" y2="0.1156"/><line class="a" x1="54.0938" y1="38.0999" x2="75.9272" y2="38.0999"/><line class="a" x1="23.5" y1="38.0999" x2="45.75" y2="38.0999"/><line class="a" x1="5.9685" y1="12.9167" x2="5.9685" y2="5.75"/><line class="a" x1="5.9685" y1="32.1923" x2="5.9685" y2="25.0256"/><line class="a" x1="5.9685" y1="50.9298" x2="5.9685" y2="43.7632"/><line class="a" x1="20.4252" y1="22.7497" x2="20.4252" y2="15.583"/><line class="a" x1="48.7716" y1="22.7497" x2="48.7716" y2="15.583"/><line class="a" x1="20.4252" y1="3.7575" x2="20.4252" y2="-3.4091"/><line class="a" x1="48.7716" y1="3.7575" x2="48.7716" y2="-3.4091"/><line class="a" x1="20.4252" y1="41.8301" x2="20.4252" y2="34.6634"/><line class="a" x1="48.7716" y1="41.8301" x2="48.7716" y2="34.6634"/><line class="a" x1="34.315" y1="12.9167" x2="34.315" y2="5.75"/><line class="a" x1="34.315" y1="32.1923" x2="34.315" y2="25.0256"/><line class="a" x1="34.315" y1="50.9298" x2="34.315" y2="43.7632"/><line class="a" x1="20.4252" y1="60.1342" x2="20.4252" y2="52.9675"/><line class="a" x1="48.7716" y1="60.1342" x2="48.7716" y2="52.9675"/></svg>