<svg xmlns="http://www.w3.org/2000/svg" width="20mm" height="20mm" viewBox="0 0 56.6929 56.6929"><title>15104091</title><circle cx="2.9154" cy="8.5013" r="0.7087"/><circle cx="8.5846" cy="8.5013" r="0.7087"/><circle cx="25.5925" cy="8.5013" r="0.7087"/><circle cx="31.2618" cy="8.5013" r="0.7087"/><circle cx="36.9311" cy="8.5013" r="0.7087"/><circle cx="53.939" cy="8.5013" r="0.7087"/><circle cx="11.4193" cy="14.1706" r="0.7087"/><circle cx="17.0886" cy="14.1706" r="0.7087"/><circle cx="22.7579" cy="14.1706" r="0.7087"/><circle cx="39.7657" cy="14.1706" r="0.7087"/><circle cx="45.435" cy="14.1706" r="0.7087"/><circle cx="51.1043" cy="14.1706" r="0.7087"/><polygon points="14.368 5.625 19.79 5.625 16.938 11.658 14.368 5.625"/><polygon points="42.715 5.625 48.137 5.625 45.284 11.658 42.715 5.625"/><polygon points="0.195 11.294 5.617 11.294 2.764 17.328 0.195 11.294"/><polygon points="28.541 11.294 33.964 11.294 31.111 17.328 28.541 11.294"/><circle cx="11.4193" cy="2.832" r="0.7087"/><circle cx="17.0886" cy="2.832" r="0.7087"/><circle cx="22.7579" cy="2.832" r="0.7087"/><circle cx="39.7657" cy="2.832" r="0.7087"/><circle cx="45.435" cy="2.832" r="0.7087"/><circle cx="51.1043" cy="2.832" r="0.7087"/><polygon points="0.195 -0.044 5.617 -0.044 2.764 5.989 0.195 -0.044"/><polygon points="28.541 -0.044 33.964 -0.044 31.111 5.989 28.541 -0.044"/><circle cx="2.9154" cy="19.8399" r="0.7087"/><circle cx="8.5846" cy="19.8399" r="0.7087"/><circle cx="25.5925" cy="19.8399" r="0.7087"/><circle cx="31.2618" cy="19.8399" r="0.7087"/><circle cx="36.9311" cy="19.8399" r="0.7087"/><circle cx="53.939" cy="19.8399" r="0.7087"/><circle cx="11.4193" cy="25.5092" r="0.7087"/><circle cx="17.0886" cy="25.5092" r="0.7087"/><circle cx="22.7579" cy="25.5092" r="0.7087"/><circle cx="39.7657" cy="25.5092" r="0.7087"/><circle cx="45.435" cy="25.5092" r="0.7087"/><circle cx="51.1043" cy="25.5092" r="0.7087"/><polygon points="14.368 16.964 19.79 16.964 16.938 22.997 14.368 16.964"/><polygon points="42.715 16.964 48.137 16.964 45.284 22.997 42.715 16.964"/><polygon points="0.195 22.633 5.617 22.633 2.764 28.666 0.195 22.633"/><polygon points="28.541 22.633 33.964 22.633 31.111 28.666 28.541 22.633"/><circle cx="2.9154" cy="31.1785" r="0.7087"/><circle cx="8.5846" cy="31.1785" r="0.7087"/><circle cx="25.5925" cy="31.1785" r="0.7087"/><circle cx="31.2618" cy="31.1785" r="0.7087"/><circle cx="36.9311" cy="31.1785" r="0.7087"/><circle cx="53.939" cy="31.1785" r="0.7087"/><circle cx="11.4193" cy="36.8478" r="0.7087"/><circle cx="17.0886" cy="36.8478" r="0.7087"/><circle cx="22.7579" cy="36.8478" r="0.7087"/><circle cx="39.7657" cy="36.8478" r="0.7087"/><circle cx="45.435" cy="36.8478" r="0.7087"/><circle cx="51.1043" cy="36.8478" r="0.7087"/><polygon points="14.368 28.302 19.79 28.302 16.938 34.336 14.368 28.302"/><polygon points="42.715 28.302 48.137 28.302 45.284 34.336 42.715 28.302"/><polygon points="0.195 33.971 5.617 33.971 2.764 40.005 0.195 33.971"/><polygon points="28.541 33.971 33.964 33.971 31.111 40.005 28.541 33.971"/><circle cx="2.9154" cy="42.5171" r="0.7087"/><circle cx="8.5846" cy="42.5171" r="0.7087"/><circle cx="25.5925" cy="42.5171" r="0.7087"/><circle cx="31.2618" cy="42.5171" r="0.7087"/><circle cx="36.9311" cy="42.5171" r="0.7087"/><circle cx="53.939" cy="42.5171" r="0.7087"/><circle cx="11.4193" cy="48.1864" r="0.7087"/><circle cx="17.0886" cy="48.1864" r="0.7087"/><circle cx="22.7579" cy="48.1864" r="0.7087"/><circle cx="39.7657" cy="48.1864" r="0.7087"/><circle cx="45.435" cy="48.1864" r="0.7087"/><circle cx="51.1043" cy="48.1864" r="0.7087"/><polygon points="14.368 39.641 19.79 39.641 16.938 45.674 14.368 39.641"/><polygon points="42.715 39.641 48.137 39.641 45.284 45.674 42.715 39.641"/><polygon points="0.195 45.31 5.617 45.31 2.764 51.344 0.195 45.31"/><polygon points="28.541 45.31 33.964 45.31 31.111 51.344 28.541 45.31"/><circle cx="2.9154" cy="53.8556" r="0.7087"/><circle cx="8.5846" cy="53.8556" r="0.7087"/><circle cx="25.5925" cy="53.8556" r="0.7087"/><circle cx="31.2618" cy="53.8556" r="0.7087"/><circle cx="36.9311" cy="53.8556" r="0.7087"/><circle cx="53.939" cy="53.8556" r="0.7087"/><polygon points="14.368 50.979 19.79 50.979 16.938 57.013 14.368 50.979"/><polygon points="42.715 50.979 48.137 50.979 45.284 57.013 42.715 50.979"/></svg>