<svg xmlns="http://www.w3.org/2000/svg" xmlns:xlink="http://www.w3.org/1999/xlink" width="20mm" height="20mm" viewBox="0 0 56.6929 56.6929"><defs><style>.a,.c{fill:none;}.b{clip-path:url(#a);}.c,.d{stroke:#000;stroke-linecap:round;stroke-miterlimit:10;stroke-width:0.5px;}.d{fill:url(#b);}</style><clipPath id="a"><rect class="a" width="56.6929" height="56.6929"/></clipPath><pattern id="b" width="56.6929" height="56.6929" patternUnits="userSpaceOnUse" viewBox="0 0 56.693 56.693"><rect class="a" width="56.6929" height="56.6929"/><g class="b"><line class="c" x1="-6.8269" y1="11.3386" x2="6.8398" y2="11.3386"/><line class="c" x1="12.0708" y1="11.3386" x2="25.7375" y2="11.3386"/><line class="c" x1="30.9684" y1="11.3386" x2="44.6351" y2="11.3386"/><line class="c" x1="49.8661" y1="11.3386" x2="63.5327" y2="11.3386"/><line class="c" x1="0.2598" y1="5.6693" x2="13.9264" y2="5.6693"/><line class="c" x1="19.1574" y1="5.6693" x2="32.8241" y2="5.6693"/><line class="c" x1="38.055" y1="5.6693" x2="51.7217" y2="5.6693"/><line class="c" x1="56.9527" y1="5.6693" x2="70.6193" y2="5.6693"/><line class="c" x1="-6.8269" x2="6.8398"/><line class="c" x1="12.0708" x2="25.7375"/><line class="c" x1="30.9684" x2="44.6351"/><line class="c" x1="49.8661" x2="63.5327"/><line class="c" x1="-6.8269" y1="22.6772" x2="6.8398" y2="22.6772"/><line class="c" x1="12.0708" y1="22.6772" x2="25.7375" y2="22.6772"/><line class="c" x1="30.9684" y1="22.6772" x2="44.6351" y2="22.6772"/><line class="c" x1="49.8661" y1="22.6772" x2="63.5327" y2="22.6772"/><line class="c" x1="0.2598" y1="17.0079" x2="13.9264" y2="17.0079"/><line class="c" x1="19.1574" y1="17.0079" x2="32.8241" y2="17.0079"/><line class="c" x1="38.055" y1="17.0079" x2="51.7217" y2="17.0079"/><line class="c" x1="56.9527" y1="17.0079" x2="70.6193" y2="17.0079"/><line class="c" x1="-6.8269" y1="34.0157" x2="6.8398" y2="34.0157"/><line class="c" x1="12.0708" y1="34.0157" x2="25.7375" y2="34.0157"/><line class="c" x1="30.9684" y1="34.0157" x2="44.6351" y2="34.0157"/><line class="c" x1="49.8661" y1="34.0157" x2="63.5327" y2="34.0157"/><line class="c" x1="0.2598" y1="28.3465" x2="13.9264" y2="28.3465"/><line class="c" x1="19.1574" y1="28.3465" x2="32.8241" y2="28.3465"/><line class="c" x1="38.055" y1="28.3465" x2="51.7217" y2="28.3465"/><line class="c" x1="56.9527" y1="28.3465" x2="70.6193" y2="28.3465"/><line class="c" x1="-6.8269" y1="45.3543" x2="6.8398" y2="45.3543"/><line class="c" x1="12.0708" y1="45.3543" x2="25.7375" y2="45.3543"/><line class="c" x1="30.9684" y1="45.3543" x2="44.6351" y2="45.3543"/><line class="c" x1="49.8661" y1="45.3543" x2="63.5327" y2="45.3543"/><line class="c" x1="0.2598" y1="39.685" x2="13.9264" y2="39.685"/><line class="c" x1="19.1574" y1="39.685" x2="32.8241" y2="39.685"/><line class="c" x1="38.055" y1="39.685" x2="51.7217" y2="39.685"/><line class="c" x1="56.9527" y1="39.685" x2="70.6193" y2="39.685"/><line class="c" x1="-6.8269" y1="56.6929" x2="6.8398" y2="56.6929"/><line class="c" x1="12.0708" y1="56.6929" x2="25.7375" y2="56.6929"/><line class="c" x1="30.9684" y1="56.6929" x2="44.6351" y2="56.6929"/><line class="c" x1="49.8661" y1="56.6929" x2="63.5327" y2="56.6929"/><line class="c" x1="0.2598" y1="51.0236" x2="13.9264" y2="51.0236"/><line class="c" x1="19.1574" y1="51.0236" x2="32.8241" y2="51.0236"/><line class="c" x1="38.055" y1="51.0236" x2="51.7217" y2="51.0236"/><line class="c" x1="56.9527" y1="51.0236" x2="70.6193" y2="51.0236"/></g></pattern></defs><title>15102026</title><line class="d" x1="-6.7087" y1="11.2731" x2="6.9579" y2="11.2731"/><line class="d" x1="12.1889" y1="11.2731" x2="25.8556" y2="11.2731"/><line class="d" x1="31.0865" y1="11.2731" x2="44.7532" y2="11.2731"/><line class="d" x1="49.9842" y1="11.2731" x2="63.6508" y2="11.2731"/><line class="d" x1="0.3779" y1="5.6038" x2="14.0445" y2="5.6038"/><line class="d" x1="19.2755" y1="5.6038" x2="32.9422" y2="5.6038"/><line class="d" x1="38.1731" y1="5.6038" x2="51.8398" y2="5.6038"/><line class="c" x1="-6.7087" y1="-0.0655" x2="6.9579" y2="-0.0655"/><line class="d" x1="12.1889" y1="-0.0655" x2="25.8556" y2="-0.0655"/><line class="d" x1="31.0865" y1="-0.0655" x2="44.7532" y2="-0.0655"/><line class="d" x1="49.9842" y1="-0.0655" x2="63.6508" y2="-0.0655"/><line class="d" x1="-6.7087" y1="22.6117" x2="6.9579" y2="22.6117"/><line class="d" x1="12.1889" y1="22.6117" x2="25.8556" y2="22.6117"/><line class="d" x1="31.0865" y1="22.6117" x2="44.7532" y2="22.6117"/><line class="d" x1="49.9842" y1="22.6117" x2="63.6508" y2="22.6117"/><line class="d" x1="0.3779" y1="16.9424" x2="14.0445" y2="16.9424"/><line class="d" x1="19.2755" y1="16.9424" x2="32.9422" y2="16.9424"/><line class="d" x1="38.1731" y1="16.9424" x2="51.8398" y2="16.9424"/><line class="d" x1="-6.7087" y1="33.9503" x2="6.9579" y2="33.9503"/><line class="d" x1="12.1889" y1="33.9503" x2="25.8556" y2="33.9503"/><line class="d" x1="31.0865" y1="33.9503" x2="44.7532" y2="33.9503"/><line class="d" x1="49.9842" y1="33.9503" x2="63.6508" y2="33.9503"/><line class="d" x1="0.3779" y1="28.281" x2="14.0445" y2="28.281"/><line class="d" x1="19.2755" y1="28.281" x2="32.9422" y2="28.281"/><line class="d" x1="38.1731" y1="28.281" x2="51.8398" y2="28.281"/><line class="d" x1="-6.7087" y1="45.2889" x2="6.9579" y2="45.2889"/><line class="d" x1="12.1889" y1="45.2889" x2="25.8556" y2="45.2889"/><line class="d" x1="31.0865" y1="45.2889" x2="44.7532" y2="45.2889"/><line class="d" x1="49.9842" y1="45.2889" x2="63.6508" y2="45.2889"/><line class="d" x1="0.3779" y1="39.6196" x2="14.0445" y2="39.6196"/><line class="d" x1="19.2755" y1="39.6196" x2="32.9422" y2="39.6196"/><line class="d" x1="38.1731" y1="39.6196" x2="51.8398" y2="39.6196"/><line class="d" x1="-6.7087" y1="56.6275" x2="6.9579" y2="56.6275"/><line class="d" x1="12.1889" y1="56.6275" x2="25.8556" y2="56.6275"/><line class="d" x1="31.0865" y1="56.6275" x2="44.7532" y2="56.6275"/><line class="d" x1="49.9842" y1="56.6275" x2="63.6508" y2="56.6275"/><line class="d" x1="0.3779" y1="50.9582" x2="14.0445" y2="50.9582"/><line class="d" x1="19.2755" y1="50.9582" x2="32.9422" y2="50.9582"/><line class="d" x1="38.1731" y1="50.9582" x2="51.8398" y2="50.9582"/></svg>