<svg xmlns="http://www.w3.org/2000/svg" width="20mm" height="20mm" viewBox="0 0 56.6929 56.6929"><defs><style>.a{fill:none;stroke:#000;stroke-miterlimit:10;stroke-width:0.5px;}</style></defs><title>15102061</title><circle class="a" cx="18.6524" cy="3.8034" r="2.8346"/><circle class="a" cx="46.7296" cy="3.8034" r="2.8346"/><circle class="a" cx="46.7296" cy="22.5371" r="2.8346"/><circle class="a" cx="32.5064" cy="13.0681" r="2.8346"/><circle class="a" cx="4.456" cy="13.0681" r="2.8346"/><circle class="a" cx="4.456" cy="32.0514" r="2.8346"/><circle class="a" cx="32.5064" cy="32.0514" r="2.8346"/><circle class="a" cx="18.6524" cy="41.3167" r="2.8346"/><circle class="a" cx="46.7296" cy="41.3167" r="2.8346"/><circle class="a" cx="4.456" cy="51.0366" r="2.8346"/><circle class="a" cx="32.5064" cy="51.0366" r="2.8346"/><circle class="a" cx="18.6524" cy="22.5371" r="2.8346"/><circle cx="18.6524" cy="22.5371" r="0.6973"/><circle cx="18.6524" cy="3.8034" r="0.6973"/><circle cx="46.7296" cy="3.8034" r="0.6973"/><circle cx="32.5064" cy="13.0681" r="0.6973"/><circle cx="4.456" cy="13.0681" r="0.6973"/><circle cx="4.456" cy="32.0514" r="0.6973"/><circle cx="32.5064" cy="32.0514" r="0.6973"/><circle cx="46.7296" cy="22.5371" r="0.6973"/><circle cx="18.6524" cy="41.3167" r="0.6973"/><circle cx="4.456" cy="51.0366" r="0.7087"/><circle cx="32.5064" cy="51.0366" r="0.7087"/><circle cx="46.7296" cy="41.3167" r="0.6973"/><circle class="a" cx="18.6524" cy="13.0681" r="2.8346"/><circle class="a" cx="46.7296" cy="13.0681" r="2.8346"/><circle class="a" cx="46.7296" cy="32.0514" r="2.8346"/><circle class="a" cx="32.5064" cy="22.5371" r="2.8346"/><circle class="a" cx="4.456" cy="22.5371" r="2.8346"/><circle class="a" cx="4.456" cy="41.3167" r="2.8346"/><circle class="a" cx="32.5064" cy="41.3167" r="2.8346"/><circle class="a" cx="18.6524" cy="51.0366" r="2.8346"/><circle class="a" cx="46.7296" cy="51.0366" r="2.8346"/><circle class="a" cx="4.456" cy="3.8034" r="2.8346"/><circle class="a" cx="32.5064" cy="3.8034" r="2.8346"/><circle class="a" cx="18.6524" cy="32.0514" r="2.8346"/><circle cx="18.6524" cy="32.0514" r="0.6973"/><circle cx="18.6524" cy="13.0681" r="0.6973"/><circle cx="46.7296" cy="13.0681" r="0.6973"/><circle cx="32.5064" cy="22.5371" r="0.6973"/><circle cx="4.456" cy="22.5371" r="0.6973"/><circle cx="4.456" cy="41.3167" r="0.6973"/><circle cx="32.5064" cy="41.3167" r="0.6973"/><circle cx="46.7296" cy="32.0514" r="0.6973"/><circle cx="18.6524" cy="51.0366" r="0.6973"/><circle cx="4.456" cy="3.8034" r="0.7087"/><circle cx="32.5064" cy="3.8034" r="0.7087"/><circle cx="46.7296" cy="51.0366" r="0.6973"/></svg>