<svg xmlns="http://www.w3.org/2000/svg" width="20mm" height="20mm" viewBox="0 0 56.6929 56.6929"><defs><style>.a{fill:none;stroke:#000;stroke-miterlimit:10;stroke-width:0.5px;}</style></defs><title>15102072</title><path class="a" d="M33.0022,39.3515l7.7983,8.1666,8.05-8.1666-1.4512.94a11.9052,11.9052,0,0,1-12.9459,0Z"/><path class="a" d="M33.0022,21.1454l7.7983,8.1667,8.05-8.1667-1.4512.94a11.9056,11.9056,0,0,1-12.9459,0Z"/><path class="a" d="M4.6557,29.7137,12.454,37.88l8.05-8.1666-1.4511.94a11.9057,11.9057,0,0,1-12.946,0Z"/><path class="a" d="M4.6557,47.7411l7.7983,8.1667,8.05-8.1667-1.4511.94a11.9057,11.9057,0,0,1-12.946,0Z"/><path class="a" d="M4.6557,11.5076l7.7983,8.1667,8.05-8.1667-1.4511.94a11.9057,11.9057,0,0,1-12.946,0Z"/><path class="a" d="M33.0022,3.0037,40.8005,11.17l8.05-8.1666-1.4512.94a11.9052,11.9052,0,0,1-12.9459,0Z"/></svg>