<svg width="14" height="15" viewBox="0 0 14 15" fill="none" xmlns="http://www.w3.org/2000/svg">
    <path d="M7.00042 0.75C5.66536 0.749918 4.36026 1.14574 3.25016 1.88741C2.14007 2.62908 1.27484 3.68328 0.763895 4.91669C0.252952 6.15011 0.119245 7.50735 0.379682 8.81676C0.640119 10.1262 1.283 11.3289 2.22703 12.273C3.17106 13.217 4.37383 13.8599 5.68324 14.1203C6.99265 14.3808 8.34989 14.247 9.58331 13.7361C10.8167 13.2252 11.8709 12.3599 12.6126 11.2498C13.3543 10.1397 13.7501 8.83464 13.75 7.49958C13.7478 5.71015 13.036 3.99463 11.7707 2.72931C10.5054 1.46399 8.78985 0.752178 7.00042 0.75ZM7.00042 13.6394C5.78617 13.6394 4.59919 13.2794 3.58957 12.6048C2.57995 11.9302 1.79304 10.9714 1.32835 9.84954C0.863659 8.72773 0.742053 7.49331 0.978912 6.30239C1.21577 5.11147 1.80045 4.01752 2.65903 3.15889C3.5176 2.30026 4.61151 1.7155 5.80242 1.47856C6.99332 1.24163 8.22775 1.36315 9.34959 1.82777C10.4714 2.29239 11.4303 3.07923 12.105 4.0888C12.7796 5.09838 13.1398 6.28534 13.1398 7.49958C13.1381 9.12736 12.4907 10.688 11.3397 11.839C10.1888 12.9901 8.62819 13.6375 7.00042 13.6394Z" fill="currentColor"/>
    <path d="M9.70644 4.3762L7.00774 7.07489L4.32126 4.38841L3.8898 4.82069L6.57628 7.50636L3.90282 10.1798L4.33429 10.6113L7.00774 7.93864L9.69341 10.6243L10.1249 10.192L7.43921 7.50636L10.1379 4.80766L9.70644 4.3762Z" fill="white"/>
</svg>
