<svg fill="none" height="20" viewBox="0 0 20 20" width="20" xmlns="http://www.w3.org/2000/svg"><g stroke="#000" stroke-width="1.25"><path d="m9.99998 8.4316c1.51612 0 2.74512-1.22902 2.74512-2.7451 0-1.51607-1.229-2.74509-2.74512-2.74509-1.51607 0-2.7451 1.22902-2.7451 2.74509 0 1.51608 1.22903 2.7451 2.7451 2.7451z"/><path d="m6.83476 11.724c.91655-.3616 1.89299-.5472 2.87833-.5472h.57321c.9853 0 1.9618.1856 2.8783.5472l.5586.2204c.5504.2171 1.0584.5292 1.5009.922l.0906.0804c.2336.2074.4423.4413.6218.6969.475.6767.7298 1.4834.7298 2.3102 0 .6104-.4948 1.1052-1.1051 1.1052h-11.12299c-.61039 0-1.1052-.4948-1.1052-1.1052 0-.8268.25485-1.6335.72986-2.3102.17948-.2556.38815-.4895.62178-.6969l.09054-.0804c.44252-.3928.95055-.7049 1.50097-.922z"/></g></svg>