<svg fill="none" height="20" viewBox="0 0 20 20" width="20" xmlns="http://www.w3.org/2000/svg">
    <g stroke="currentColor" stroke-width="1.25">
        <path d="m9.99935 12.7707c1.53025 0 2.77085-1.2406 2.77085-2.77086 0-1.53029-1.2406-2.77084-2.77085-2.77084-1.53029 0-2.77083 1.24055-2.77083 2.77084 0 1.53026 1.24054 2.77086 2.77083 2.77086z"/>
        <path d="m5.87974 5.17707c.14356.03098.2935.00766.42087-.06546l1.31025-.75218c.12825-.07362.22442-.19247.26966-.33326l.35947-1.11851c.15784-.49112.6147-.82416 1.13055-.82416h1.25766c.5158 0 .9726.33299 1.1305.82406l.3596 1.11876c.0453.14077.1415.25959.2698.33321l1.3101.75215c.1274.07311.2773.09644.4209.06546l1.1433-.24674c.5042-.10882 1.021.12031 1.2789.56702l.6288 1.08917c.2579.44675.1979 1.00892-.1485 1.39117l-.7613.84013c-.099.10925-.1538.25135-.1538.39868v1.56753c0 .1474.0548.2894.1538.3987l.7613.8402c.3463.3822.4063.9444.1484 1.3911l-.6289 1.0891c-.2579.4468-.7748.676-1.279.567l-1.1433-.2468c-.1436-.031-.2936-.0077-.4209.0655l-1.3098.7519c-.1283.0736-.2245.1924-.2698.3332l-.3596 1.1188c-.1579.4911-.6147.824-1.1305.824h-1.25766c-.51585 0-.97271-.333-1.13055-.8242l-.35947-1.1184c-.04524-.1409-.14141-.2597-.26966-.3333l-1.30987-.752c-.12738-.0731-.27735-.0964-.42092-.0654l-1.143.2467c-.50424.109-1.02109-.1202-1.27902-.567l-.62883-1.0891c-.25791-.4467-.19794-1.0089.1484-1.3911l.76085-.8397c.09895-.1092.15375-.2513.15375-.3987v-1.56843c0-.1474-.05482-.28951-.15379-.39876l-.76092-.83965c-.34641-.38225-.4064-.94442-.14848-1.39117l.62883-1.08917c.25792-.44671.77471-.67584 1.27892-.56702z"/>
    </g>
</svg>

