<svg width="20" height="20" viewBox="0 0 20 20" fill="currentColor" xmlns="http://www.w3.org/2000/svg">
    <path d="M3.69379 5.42969H4.5547V17.222V17.347H4.6797H15.9455H16.0705V17.222V5.42969H16.8879H17.0129V5.30469V4.67969V4.55469H16.8879H12.7259L11.6717 3.3216L11.6342 3.27783H11.5766H9.07624H9.01865L8.98123 3.3216L7.92703 4.55469H3.69379H3.56879V4.67969V5.30469V5.42969H3.69379ZM6.16324 6.40283H6.03824V6.52783V15.6326V15.7576H6.16324H6.78824H6.91324V15.6326V6.52783V6.40283H6.78824H6.16324ZM8.07079 6.40283H7.94579V6.52783V15.6326V15.7576H8.07079H8.69579H8.82079V15.6326V6.52783V6.40283H8.69579H8.07079ZM9.97834 6.40283H9.85334V6.52783V15.6326V15.7576H9.97834H10.6033H10.7283V15.6326V6.52783V6.40283H10.6033H9.97834ZM11.8859 6.40283H11.7609V6.52783V15.6326V15.7576H11.8859H12.5109H12.6359V15.6326V6.52783V6.40283H12.5109H11.8859ZM13.7934 6.40283H13.6684V6.52783V15.6326V15.7576H13.7934H14.4184H14.5434V15.6326V6.52783V6.40283H14.4184H13.7934ZM9.4219 4.15283H11.231L11.5746 4.55469H9.07822L9.4219 4.15283ZM15.1955 16.472H5.42967V5.42969H15.1955L15.1955 16.472Z" fill="#currentColor" stroke="currentColor" stroke-width="0.25"/>
</svg>
