<svg fill="none" height="20" viewBox="0 0 20 20" width="20" xmlns="http://www.w3.org/2000/svg">
    <g stroke="currentColor" stroke-linecap="round" stroke-width="1.25">
        <path d="m10 17.2477v-6.6085" stroke-linejoin="bevel"/>
        <path d="m7.6543 12.3449 1.44048-1.4405c.49952-.4995 1.30942-.4995 1.80892 0l1.4405 1.4405"/>
        <path d="m5.09657 15.5426h-1.06589c-1.76603 0-3.197672-1.4316-3.197672-3.1976 0-1.5312.988822-2.60003 2.287722-3.01087.57233-.18103.99859-.79933.93586-1.3964-.01713-.16292-.02591-.32836-.02591-.49585 0-2.59018 2.09975-4.68993 4.68992-4.68993 1.9256 0 3.5801 1.16044 4.3024 2.82013.2463.56601.7585 1.01708 1.3757 1.01708h.2909c2.4724 0 4.4767 2.0043 4.4767 4.47674 0 2.401-1.8901 4.3605-4.2635 4.4718"/>
    </g>
</svg>
