<svg fill="none" height="20" viewBox="0 0 20 20" width="20" xmlns="http://www.w3.org/2000/svg">
    <path d="M18.8337 17.5V15.8333C18.8337 14.9493 18.4825 14.1014 17.8573 13.4763C17.2322 12.8512 16.3844 12.5 15.5003 12.5H10.5003C9.61627 12.5 8.76842 12.8512 8.1433 13.4763C7.51818 14.1014 7.16699 14.9493 7.16699 15.8333V17.5M4.66699 6.66667L7.16699 9.16667M7.16699 9.16667L4.66699 11.6667M7.16699 9.16667H2.16699M16.3337 5.83333C16.3337 7.67428 14.8413 9.16667 13.0003 9.16667C11.1594 9.16667 9.66699 7.67428 9.66699 5.83333C9.66699 3.99238 11.1594 2.5 13.0003 2.5C14.8413 2.5 16.3337 3.99238 16.3337 5.83333Z" stroke="currentColor" stroke-width="1.4" stroke-linecap="round" stroke-linejoin="round"/>
</svg>
