<svg width="16" height="20" viewBox="0 0 16 20" fill="none" xmlns="http://www.w3.org/2000/svg">
    <path d="M8.83342 5.41667V8.08333C8.83342 8.43696 8.70172 8.77609 8.4673 9.02614C8.23288 9.27619 7.91494 9.41667 7.58342 9.41667H5.08341M10.9167 2.58333C10.9167 2.22971 10.7851 1.89057 10.5506 1.64052C10.3162 1.39048 9.99827 1.25 9.66675 1.25H4.04175L0.916748 4.58333V13.25C0.916748 13.6036 1.04844 13.9428 1.28287 14.1928C1.51729 14.4429 1.83523 14.5833 2.16675 14.5833M4.66675 1.25V3.91667C4.66675 4.27029 4.53505 4.60943 4.30063 4.85948C4.06621 5.10952 3.74827 5.25 3.41675 5.25H0.916748M8.20842 5.41667L5.08341 8.75V17.4167C5.08341 17.7703 5.21511 18.1094 5.44953 18.3595C5.68395 18.6095 6.00189 18.75 6.33341 18.75H13.8334C14.1649 18.75 14.4829 18.6095 14.7173 18.3595C14.9517 18.1094 15.0834 17.7703 15.0834 17.4167V6.75C15.0834 6.39638 14.9517 6.05724 14.7173 5.80719C14.4829 5.55714 14.1649 5.41667 13.8334 5.41667H8.20842Z" stroke="currentColor" stroke-width="1.4" stroke-linecap="round" stroke-linejoin="round"/>
</svg>
