<svg width="24" height="24" viewBox="0 0 24 24" fill="none" xmlns="http://www.w3.org/2000/svg">
<path d="M3 7V5C3 4.46957 3.21071 3.96086 3.58579 3.58579C3.96086 3.21071 4.46957 3 5 3H7M17 3H19C19.5304 3 20.0391 3.21071 20.4142 3.58579C20.7893 3.96086 21 4.46957 21 5V7M21 17V19C21 19.5304 20.7893 20.0391 20.4142 20.4142C20.0391 20.7893 19.5304 21 19 21H17M7 21H5C4.46957 21 3.96086 20.7893 3.58579 20.4142C3.21071 20.0391 3 19.5304 3 19V17M6.39894 15.4999V16.8999M7.09892 16.1999H5.69896M16.399 6.49988V7.89984M17.0989 7.19986H15.699M10.5547 14.4499C10.4922 14.2077 10.3659 13.9866 10.189 13.8097C10.0121 13.6328 9.79106 13.5066 9.54881 13.4441L5.25443 12.3367C5.18116 12.3159 5.11668 12.2718 5.07076 12.211C5.02484 12.1502 5 12.0762 5 12C5 11.9238 5.02484 11.8498 5.07076 11.789C5.11668 11.7282 5.18116 11.6841 5.25443 11.6633L9.54881 10.5552C9.79097 10.4928 10.012 10.3666 10.1889 10.1899C10.3658 10.0131 10.4921 9.79218 10.5547 9.55006L11.6621 5.25567C11.6826 5.18211 11.7267 5.11731 11.7876 5.07115C11.8484 5.02499 11.9227 5 11.9991 5C12.0755 5 12.1498 5.02499 12.2106 5.07115C12.2715 5.11731 12.3156 5.18211 12.3361 5.25567L13.4428 9.55006C13.5053 9.7923 13.6316 10.0134 13.8085 10.1903C13.9854 10.3672 14.2064 10.4934 14.4487 10.5559L18.7431 11.6626C18.8169 11.683 18.882 11.727 18.9285 11.788C18.9749 11.8489 19 11.9234 19 12C19 12.0766 18.9749 12.1511 18.9285 12.212C18.882 12.273 18.8169 12.317 18.7431 12.3374L14.4487 13.4441C14.2064 13.5066 13.9854 13.6328 13.8085 13.8097C13.6316 13.9866 13.5053 14.2077 13.4428 14.4499L12.3354 18.7443C12.3149 18.8179 12.2708 18.8827 12.2099 18.9288C12.1491 18.975 12.0748 19 11.9984 19C11.922 19 11.8477 18.975 11.7869 18.9288C11.726 18.8827 11.6819 18.8179 11.6614 18.7443L10.5547 14.4499Z" stroke="currentColor" stroke-width="1.7" stroke-linecap="round" stroke-linejoin="round"/>
</svg>
