<svg width="18" height="18" viewBox="0 0 18 18" fill="none" xmlns="http://www.w3.org/2000/svg">
    <path fill-rule="evenodd" clip-rule="evenodd" d="M8.10349 1.89126L8.10349 1.89127L2.37946 4.72845C2.02627 4.90351 2.02627 5.40727 2.37946 5.58233L8.10349 8.4195C8.66837 8.69948 9.33155 8.69948 9.89644 8.4195L15.6205 5.58233C15.9737 5.40727 15.9737 4.90351 15.6205 4.72845L9.89644 1.89127C9.33155 1.61128 8.66838 1.61128 8.10349 1.89126ZM10.4516 0.77129L10.2067 1.2653L10.4516 0.771292L16.1756 3.60848C17.4553 4.24277 17.4553 6.06801 16.1756 6.7023L15.8981 6.14232L16.1756 6.7023L10.4516 9.53947L10.174 8.97948L10.4516 9.53947C9.53689 9.99283 8.46303 9.99283 7.54837 9.53947L7.82593 8.97948L7.54837 9.53947L1.82433 6.7023C0.544641 6.06801 0.544641 4.24277 1.82433 3.60848L7.54836 0.771292L7.54837 0.77129C8.46303 0.317936 9.53689 0.317936 10.4516 0.77129ZM17.0501 9.48237C17.2033 9.79166 17.0769 10.1666 16.7676 10.3199L10.4512 13.45C9.53662 13.9033 8.46299 13.9033 7.54845 13.4501L7.54842 13.4501L1.232 10.32C0.922714 10.1667 0.796237 9.79174 0.949505 9.48246C1.10277 9.17318 1.47775 9.0467 1.78703 9.19997L8.10341 12.3301L8.10345 12.3301C8.66828 12.61 9.33131 12.6099 9.89612 12.33L9.89613 12.33L16.2126 9.19988C16.5218 9.04661 16.8968 9.17309 17.0501 9.48237ZM16.7541 14.2916C17.067 14.1458 17.2024 13.7739 17.0565 13.4611C16.9107 13.1482 16.5389 13.0128 16.226 13.1587L9.85269 16.1296L9.85266 16.1297C9.312 16.3816 8.68757 16.3816 8.14692 16.1297L8.14689 16.1296L1.77357 13.1588C1.46072 13.0129 1.08887 13.1483 0.943036 13.4612C0.7972 13.774 0.932596 14.1459 1.24545 14.2917L7.6188 17.2626L7.61883 17.2626C8.49426 17.6707 9.50533 17.6707 10.3808 17.2626L10.3808 17.2626L16.7541 14.2916Z" fill="currentColor"/>
</svg>
