<svg width="15" height="17" viewBox="0 0 15 17" fill="none" xmlns="http://www.w3.org/2000/svg">
    <path d="M12.6902 6.08764V5.37573C12.6902 3.97228 12.1327 2.6263 11.1403 1.6339C10.1479 0.641506 8.8019 0.0839844 7.39844 0.0839844C5.99498 0.0839844 4.649 0.641506 3.65661 1.6339C2.66421 2.6263 2.10669 3.97228 2.10669 5.37573V6.08764H0.615479V16.6511H14.1345V6.08764H12.6902ZM2.85669 5.37573C2.85669 4.17119 3.33519 3.01597 4.18694 2.16423C5.03868 1.31249 6.19389 0.833984 7.39844 0.833984C8.60299 0.833984 9.7582 1.31249 10.6099 2.16423C11.4617 3.01597 11.9402 4.17119 11.9402 5.37573V6.08764H2.85669V5.37573ZM13.3845 15.9011H1.36548V6.83764H13.3845L13.3845 15.9011Z" fill="currentColor"/>
    <path d="M7.37525 13.6609C7.82842 13.6608 8.2714 13.5263 8.64816 13.2745C9.02492 13.0227 9.31855 12.6648 9.49193 12.2461C9.66531 11.8274 9.71065 11.3667 9.62221 10.9222C9.53378 10.4777 9.31555 10.0695 8.9951 9.74904C8.67466 9.4286 8.26639 9.21036 7.82193 9.12193C7.37747 9.03349 6.91676 9.07883 6.49806 9.25221C6.07936 9.42559 5.72147 9.71922 5.46964 10.096C5.21781 10.4727 5.08335 10.9157 5.08325 11.3689C5.08387 11.9766 5.32555 12.5592 5.75525 12.9889C6.18495 13.4186 6.76756 13.6603 7.37525 13.6609ZM7.37525 9.82789C7.68013 9.82799 7.97814 9.91849 8.23159 10.088C8.48503 10.2574 8.68253 10.4982 8.79912 10.78C8.9157 11.0617 8.94613 11.3716 8.88655 11.6706C8.82698 11.9696 8.68007 12.2443 8.46442 12.4598C8.24876 12.6753 7.97404 12.822 7.675 12.8814C7.37596 12.9408 7.06602 12.9101 6.78438 12.7934C6.50275 12.6766 6.26206 12.479 6.09276 12.2254C5.92346 11.9718 5.83315 11.6738 5.83325 11.3689C5.83378 10.9602 5.99644 10.5684 6.28553 10.2795C6.57463 9.99056 6.96654 9.82816 7.37525 9.82789Z" fill="currentColor"/>
</svg>
