<svg width="16" height="18" viewBox="0 0 18 20" fill="none" xmlns="http://www.w3.org/2000/svg">
    <path d="M4.55556 8.2V5.5C4.55556 4.30653 5.02381 3.16193 5.8573 2.31802C6.6908 1.47411 7.82126 1 9 1C10.1787 1 11.3092 1.47411 12.1427 2.31802C12.9762 3.16193 13.4444 4.30653 13.4444 5.5V8.2M9.88889 13.6C9.88889 14.0971 9.49092 14.5 9 14.5C8.50908 14.5 8.11111 14.0971 8.11111 13.6C8.11111 13.1029 8.50908 12.7 9 12.7C9.49092 12.7 9.88889 13.1029 9.88889 13.6ZM2.77778 8.2H15.2222C16.2041 8.2 17 9.00589 17 10V17.2C17 18.1941 16.2041 19 15.2222 19H2.77778C1.79594 19 1 18.1941 1 17.2V10C1 9.00589 1.79594 8.2 2.77778 8.2Z" stroke="#FF0000" stroke-width="1.4" stroke-linecap="round" stroke-linejoin="round"/>
</svg>
