<svg width="24" height="24" viewBox="0 0 24 24" fill="currentColor" xmlns="http://www.w3.org/2000/svg">
<path d="M11 11L11.3157 10.2108C11 10.0845 10.6394 10.1585 10.399 10.399C10.1585 10.6394 10.0845 11 10.2108 11.3157L11 11ZM15 21L14.2108 21.3157C14.3401 21.639 14.6535 21.8507 15.0017 21.85C15.3499 21.8493 15.6625 21.6363 15.7905 21.3125L15 21ZM16.7 16.7L16.3875 15.9095C16.169 15.9959 15.9959 16.169 15.9095 16.3875L16.7 16.7ZM21 15L21.3125 15.7905C21.6363 15.6625 21.8493 15.3499 21.85 15.0017C21.8507 14.6535 21.639 14.3401 21.3157 14.2108L21 15ZM10 4.15C9.53056 4.15 9.15 4.53056 9.15 5C9.15 5.46944 9.53056 5.85 10 5.85V4.15ZM14 5.85C14.4694 5.85 14.85 5.46944 14.85 5C14.85 4.53056 14.4694 4.15 14 4.15V5.85ZM10 18.15C9.53056 18.15 9.15 18.5306 9.15 19C9.15 19.4694 9.53056 19.85 10 19.85V18.15ZM11 19.85C11.4694 19.85 11.85 19.4694 11.85 19C11.85 18.5306 11.4694 18.15 11 18.15V19.85ZM19.85 10C19.85 9.53056 19.4694 9.15 19 9.15C18.5306 9.15 18.15 9.53056 18.15 10H19.85ZM18.15 11C18.15 11.4694 18.5306 11.85 19 11.85C19.4694 11.85 19.85 11.4694 19.85 11H18.15ZM5.85 10C5.85 9.53056 5.46944 9.15 5 9.15C4.53056 9.15 4.15 9.53056 4.15 10H5.85ZM4.15 14C4.15 14.4694 4.53056 14.85 5 14.85C5.46944 14.85 5.85 14.4694 5.85 14H4.15ZM10.2108 11.3157L14.2108 21.3157L15.7892 20.6843L11.7892 10.6843L10.2108 11.3157ZM15.7905 21.3125L17.4905 17.0125L15.9095 16.3875L14.2095 20.6875L15.7905 21.3125ZM17.0125 17.4905L21.3125 15.7905L20.6875 14.2095L16.3875 15.9095L17.0125 17.4905ZM21.3157 14.2108L11.3157 10.2108L10.6843 11.7892L20.6843 15.7892L21.3157 14.2108ZM6.34999 4.99999C6.34999 5.74557 5.74557 6.34999 4.99999 6.34999V8.04999C6.68446 8.04999 8.04999 6.68446 8.04999 4.99999H6.34999ZM4.99999 6.34999C4.2544 6.34999 3.64999 5.74557 3.64999 4.99999H1.94999C1.94999 6.68446 3.31552 8.04999 4.99999 8.04999V6.34999ZM3.64999 4.99999C3.64999 4.2544 4.2544 3.64999 4.99999 3.64999V1.94999C3.31552 1.94999 1.94999 3.31552 1.94999 4.99999H3.64999ZM4.99999 3.64999C5.74557 3.64999 6.34999 4.2544 6.34999 4.99999H8.04999C8.04999 3.31552 6.68446 1.94999 4.99999 1.94999V3.64999ZM20.35 4.99999C20.35 5.74557 19.7456 6.34999 19 6.34999V8.04999C20.6845 8.04999 22.05 6.68446 22.05 4.99999H20.35ZM19 6.34999C18.2544 6.34999 17.65 5.74557 17.65 4.99999H15.95C15.95 6.68446 17.3155 8.04999 19 8.04999V6.34999ZM17.65 4.99999C17.65 4.2544 18.2544 3.64999 19 3.64999V1.94999C17.3155 1.94999 15.95 3.31552 15.95 4.99999H17.65ZM19 3.64999C19.7456 3.64999 20.35 4.2544 20.35 4.99999H22.05C22.05 3.31552 20.6845 1.94999 19 1.94999V3.64999ZM6.35 19C6.35 19.7456 5.74559 20.35 5 20.35V22.05C6.68447 22.05 8.05 20.6845 8.05 19H6.35ZM5 20.35C4.25442 20.35 3.65 19.7456 3.65 19H1.95C1.95 20.6845 3.31553 22.05 5 22.05V20.35ZM3.65 19C3.65 18.2544 4.25442 17.65 5 17.65V15.95C3.31553 15.95 1.95 17.3155 1.95 19H3.65ZM5 17.65C5.74558 17.65 6.35 18.2544 6.35 19H8.05C8.05 17.3155 6.68447 15.95 5 15.95V17.65ZM10 5.85H14V4.15H10V5.85ZM10 19.85H11V18.15H10V19.85ZM18.15 10V11H19.85V10H18.15ZM4.15 10V14H5.85V10H4.15Z" fill="#1C2834"/>
</svg>
