<svg width="20" height="20" viewBox="0 0 20 20" fill="currentColor" xmlns="http://www.w3.org/2000/svg">
    <path fill-rule="evenodd" clip-rule="evenodd" d="M13.553 3.21369L10.7708 2.2863C10.7593 1.02165 9.7306 0 8.46324 0C7.18873 0 6.15554 1.03319 6.15554 2.30769C6.15554 2.48684 6.17596 2.66122 6.21459 2.82864L3.76262 4.36111C3.36589 4.03912 2.86018 3.84616 2.3094 3.84616C1.0349 3.84616 0.00170898 4.87935 0.00170898 6.15386C0.00170898 7.1658 0.653058 8.02562 1.55938 8.33693V15.5092C0.653058 15.8205 0.00170898 16.6803 0.00170898 17.6923C0.00170898 18.9668 1.0349 20 2.3094 20C3.32135 20 4.18118 19.3486 4.49248 18.4423H12.434C12.7453 19.3486 13.6051 20 14.6171 20C15.8916 20 16.9248 18.9668 16.9248 17.6923C16.9248 17.0627 16.6727 16.492 16.2639 16.0757L17.3887 13.8261C17.4886 13.8393 17.5905 13.8461 17.6941 13.8461C18.9686 13.8461 20.0018 12.8129 20.0018 11.5384C20.0018 10.2711 18.9801 9.24229 17.7154 9.23085L16.788 6.44879C17.3388 6.02705 17.6941 5.36269 17.6941 4.61536C17.6941 3.34086 16.6609 2.30767 15.3864 2.30767C14.6391 2.30767 13.9747 2.66289 13.553 3.21369ZM13.0788 4.63676L10.2966 3.70937C9.87488 4.26017 9.21054 4.61538 8.46324 4.61538C7.91244 4.61538 7.40671 4.42242 7.00996 4.1004L4.55804 5.63285C4.59667 5.80028 4.61709 5.97469 4.61709 6.15386C4.61709 7.16582 3.96572 8.02565 3.05938 8.33694V15.5092C3.73058 15.7397 4.26195 16.2711 4.49248 16.9423H12.434C12.7453 16.036 13.6051 15.3846 14.6171 15.3846C14.7206 15.3846 14.8225 15.3914 14.9224 15.4046L16.0472 13.155C15.6385 12.7387 15.3864 12.168 15.3864 11.5384C15.3864 10.7912 15.7416 10.1269 16.2923 9.70511L15.3649 6.92296C14.1074 6.91151 13.0902 5.89427 13.0788 4.63676Z" fill="currentColor"/>
</svg>

