<svg width="17" height="17" viewBox="0 0 17 17" fill="none" xmlns="http://www.w3.org/2000/svg">
    <path d="M0.999939 4.33333V2.66667C0.999939 2.22464 1.17553 1.80072 1.48809 1.48816C1.80065 1.1756 2.22458 1 2.66661 1H4.33327M12.6666 1H14.3333C14.7753 1 15.1992 1.1756 15.5118 1.48816C15.8243 1.80072 15.9999 2.22464 15.9999 2.66667V4.33333M15.9999 12.6667V14.3333C15.9999 14.7754 15.8243 15.1993 15.5118 15.5118C15.1992 15.8244 14.7753 16 14.3333 16H12.6666M4.33327 16H2.66661C2.22458 16 1.80065 15.8244 1.48809 15.5118C1.17553 15.1993 0.999939 14.7754 0.999939 14.3333V12.6667M4.33327 5.16667H10.9999M4.33327 8.5H12.6666M4.33327 11.8333H9.33327" stroke="currentColor" stroke-width="1.4" stroke-linecap="round" stroke-linejoin="round"/>
</svg>
